<svg width="68" height="67" viewBox="0 0 68 67" fill="none" xmlns="http://www.w3.org/2000/svg">
<path d="M33.8999 67C52.4014 67 67.3999 52.0015 67.3999 33.5C67.3999 14.9985 52.4014 0 33.8999 0C15.3984 0 0.399902 14.9985 0.399902 33.5C0.399902 52.0015 15.3984 67 33.8999 67Z" fill="#A78667"/>
<path fill-rule="evenodd" clip-rule="evenodd" d="M30.546 38.1219V28.7318L39.1906 33.3282L30.546 38.1219ZM49.9061 26.8339C49.9061 26.8339 49.5877 24.5363 48.6113 23.5246C47.3728 22.1966 45.9846 22.1899 45.3479 22.1122C40.7903 21.775 33.9536 21.775 33.9536 21.775H33.9395C33.9395 21.775 27.103 21.775 22.5452 22.1122C21.9085 22.1899 20.5208 22.1966 19.2818 23.5246C18.3052 24.5363 17.9875 26.8339 17.9875 26.8339C17.9875 26.8339 17.6619 29.5319 17.6619 32.23V34.7595C17.6619 37.4575 17.9875 40.1556 17.9875 40.1556C17.9875 40.1556 18.3052 42.4532 19.2818 43.4649C20.5208 44.7929 22.1482 44.751 22.873 44.89C25.4786 45.1458 33.9466 45.225 33.9466 45.225C33.9466 45.225 40.7903 45.2145 45.3479 44.8773C45.9846 44.7996 47.3728 44.7929 48.6113 43.4649C49.5877 42.4532 49.9061 40.1556 49.9061 40.1556C49.9061 40.1556 50.2312 37.4575 50.2312 34.7595V32.23C50.2312 29.5319 49.9061 26.8339 49.9061 26.8339Z" fill="white"/>
</svg>
