<svg width="68" height="67" viewBox="0 0 68 67" fill="none" xmlns="http://www.w3.org/2000/svg">
<path d="M34.1001 67C52.6016 67 67.6001 52.0015 67.6001 33.5C67.6001 14.9985 52.6016 0 34.1001 0C15.5986 0 0.600098 14.9985 0.600098 33.5C0.600098 52.0015 15.5986 67 34.1001 67Z" fill="#A78667"/>
<path fill-rule="evenodd" clip-rule="evenodd" d="M36.7773 35.1308H41.0368L41.6743 30.2176H36.7773V27.0809C36.7773 25.6583 37.1749 24.689 39.2282 24.689L41.847 24.6878V20.2936C41.3939 20.2338 39.8395 20.1 38.0309 20.1C34.2553 20.1 31.6704 22.3895 31.6704 26.5945V30.2176H27.4001V35.1308H31.6704V47.7375H36.7773V35.1308Z" fill="white"/>
</svg>
