<svg width="68" height="67" viewBox="0 0 68 67" fill="none" xmlns="http://www.w3.org/2000/svg">
<path d="M34.3 67C52.8016 67 67.8 52.0015 67.8 33.5C67.8 14.9985 52.8016 0 34.3 0C15.7985 0 0.800049 14.9985 0.800049 33.5C0.800049 52.0015 15.7985 67 34.3 67Z" fill="#9F9F9F"/>
<path fill-rule="evenodd" clip-rule="evenodd" d="M49.3751 31.8691C49.3751 25.3796 42.6123 20.1 34.3001 20.1C25.9882 20.1 19.2251 25.3796 19.2251 31.8691C19.2251 37.6865 24.5883 42.5594 31.8328 43.4812C32.3234 43.5828 32.9916 43.793 33.1608 44.1965C33.3129 44.5629 33.2604 45.1369 33.2093 45.5072C33.2093 45.5072 33.0331 46.5308 32.9943 46.7492C32.9289 47.1157 32.6913 48.1829 34.3001 47.531C35.9094 46.8789 42.9813 42.6127 46.144 39.1102C48.3289 36.8058 49.3751 34.4665 49.3751 31.8691ZM24.9446 35.3993C24.5618 35.3993 24.2501 35.0758 24.2501 34.6775V29.2115C24.2501 28.8137 24.6045 28.4899 25.0541 28.4899C25.5037 28.4899 25.7576 28.811 25.7576 29.2115V33.9563H27.5756C27.9591 33.9563 28.2701 34.28 28.2701 34.6775C28.2701 35.0758 27.9591 35.3993 27.5756 35.3993H24.9446ZM31.2851 34.6775C31.2851 35.0758 30.9469 35.3993 30.5315 35.3993C30.1158 35.3993 29.7776 35.0758 29.7776 34.6775V29.2115C29.7776 28.8137 30.1158 28.4899 30.5315 28.4899C30.9469 28.4899 31.2851 28.8137 31.2851 29.2115V34.6775ZM38.8226 34.6775C38.8226 34.9891 38.6077 35.2641 38.2861 35.3619C38.2055 35.3869 38.1213 35.3993 38.0369 35.3993C37.7923 35.3993 37.5578 35.2916 37.4099 35.1107L34.3624 31.296V34.6775C34.3624 35.0758 34.0107 35.3993 33.5777 35.3993C33.1449 35.3993 32.7926 35.0758 32.7926 34.6775V29.2115C32.7926 28.9006 33.0083 28.6256 33.3291 28.5273C33.41 28.5021 33.4939 28.4899 33.5783 28.4899C33.8232 28.4899 34.0579 28.5974 34.2048 28.7785L37.2533 32.5933V29.2115C37.2533 28.8137 37.6057 28.4899 38.038 28.4899C38.4712 28.4899 38.8226 28.8137 38.8226 29.2115V34.6775ZM43.6555 31.2232C44.0389 31.2232 44.3501 31.5468 44.3501 31.9448C44.3501 32.3422 44.0389 32.6658 43.6555 32.6658H41.7193V33.9563H43.6555C44.0382 33.9563 44.3501 34.28 44.3501 34.6775C44.3501 35.0758 44.0382 35.3993 43.6555 35.3993H41.0244C40.6421 35.3993 40.3301 35.0758 40.3301 34.6775V31.9466V31.9448V29.2115C40.3301 28.8137 40.6415 28.4899 41.0244 28.4899H43.6555C44.0389 28.4899 44.3501 28.8137 44.3501 29.2115C44.3501 29.6093 44.0389 29.9326 43.6555 29.9326H41.7193V31.2232H43.6555Z" fill="white"/>
</svg>
