<svg width="67" height="67" viewBox="0 0 67 67" fill="none" xmlns="http://www.w3.org/2000/svg">
<path d="M33.5 67C52.0015 67 67 52.0015 67 33.5C67 14.9985 52.0015 0 33.5 0C14.9985 0 0 14.9985 0 33.5C0 52.0015 14.9985 67 33.5 67Z" fill="#A78667"/>
<path fill-rule="evenodd" clip-rule="evenodd" d="M33.6047 20.1C29.7665 20.1 29.2852 20.1162 27.7777 20.1851C26.2736 20.2536 25.2462 20.4926 24.3472 20.842C23.4179 21.2031 22.6296 21.6864 21.8439 22.4719C21.0583 23.2577 20.5751 24.0459 20.2139 24.9752C19.8645 25.8742 19.6255 26.9016 19.557 28.4058C19.4882 29.9133 19.4719 30.3945 19.4719 34.2328C19.4719 38.0711 19.4882 38.5523 19.557 40.0598C19.6255 41.5639 19.8645 42.5914 20.2139 43.4903C20.5751 44.4196 21.0583 45.2079 21.8439 45.9936C22.6296 46.7792 23.4179 47.2624 24.3472 47.6237C25.2462 47.973 26.2736 48.212 27.7777 48.2805C29.2852 48.3494 29.7665 48.3656 33.6047 48.3656C37.443 48.3656 37.9242 48.3494 39.4317 48.2805C40.9359 48.212 41.9633 47.973 42.8623 47.6237C43.7916 47.2624 44.5798 46.7792 45.3656 45.9936C46.1512 45.2079 46.6344 44.4196 46.9957 43.4903C47.3449 42.5914 47.584 41.5639 47.6525 40.0598C47.7213 38.5523 47.7375 38.0711 47.7375 34.2328C47.7375 30.3945 47.7213 29.9133 47.6525 28.4058C47.584 26.9016 47.3449 25.8742 46.9957 24.9752C46.6344 24.0459 46.1512 23.2577 45.3656 22.4719C44.5798 21.6864 43.7916 21.2031 42.8623 20.842C41.9633 20.4926 40.9359 20.2536 39.4317 20.1851C37.9242 20.1162 37.443 20.1 33.6047 20.1ZM33.6047 22.6465C37.3783 22.6465 37.8254 22.6609 39.3156 22.7289C40.6935 22.7917 41.4419 23.0218 41.9399 23.2155C42.5995 23.4718 43.0703 23.7781 43.5648 24.2727C44.0594 24.7672 44.3658 25.238 44.622 25.8977C44.8157 26.3956 45.0458 27.144 45.1086 28.5219C45.1766 30.0121 45.191 30.4592 45.191 34.2328C45.191 38.0064 45.1766 38.4535 45.1086 39.9437C45.0458 41.3216 44.8157 42.0699 44.622 42.5679C44.3658 43.2275 44.0594 43.6984 43.5648 44.1928C43.0703 44.6875 42.5995 44.9938 41.9399 45.2501C41.4419 45.4437 40.6935 45.6739 39.3156 45.7367C37.8256 45.8047 37.3787 45.8191 33.6047 45.8191C29.8308 45.8191 29.3839 45.8047 27.8938 45.7367C26.516 45.6739 25.7676 45.4437 25.2696 45.2501C24.61 44.9938 24.1391 44.6875 23.6447 44.1928C23.1501 43.6984 22.8437 43.2275 22.5874 42.5679C22.3938 42.0699 22.1636 41.3216 22.1008 39.9437C22.0328 38.4535 22.0184 38.0064 22.0184 34.2328C22.0184 30.4592 22.0328 30.0121 22.1008 28.5219C22.1636 27.144 22.3938 26.3956 22.5874 25.8977C22.8437 25.238 23.1501 24.7672 23.6447 24.2727C24.1391 23.7781 24.61 23.4718 25.2696 23.2155C25.7676 23.0218 26.516 22.7917 27.8938 22.7289C29.3841 22.6609 29.8311 22.6465 33.6047 22.6465ZM33.6047 26.9753C29.5966 26.9753 26.3473 30.2247 26.3473 34.2328C26.3473 38.2409 29.5966 41.4902 33.6047 41.4902C37.6128 41.4902 40.8622 38.2409 40.8622 34.2328C40.8622 30.2247 37.6128 26.9753 33.6047 26.9753ZM33.6047 38.9437C31.003 38.9437 28.8938 36.8346 28.8938 34.2328C28.8938 31.631 31.003 29.5219 33.6047 29.5219C36.2065 29.5219 38.3157 31.631 38.3157 34.2328C38.3157 36.8346 36.2065 38.9437 33.6047 38.9437ZM42.8449 26.6888C42.8449 25.7521 42.0854 24.9926 41.1488 24.9926C40.2123 24.9926 39.453 25.7521 39.453 26.6888C39.453 27.6252 40.2123 28.3845 41.1488 28.3845C42.0854 28.3845 42.8449 27.6252 42.8449 26.6888Z" fill="white"/>
</svg>
