<?xml version="1.0" encoding="utf-8"?>
<!-- Generator: Adobe Illustrator 27.6.1, SVG Export Plug-In . SVG Version: 6.00 Build 0)  -->
<svg version="1.1" id="圖層_1" xmlns="http://www.w3.org/2000/svg" xmlns:xlink="http://www.w3.org/1999/xlink" x="0px" y="0px"
	 viewBox="0 0 20 20" style="enable-background:new 0 0 20 20;" xml:space="preserve">
<style type="text/css">
	.st0{fill:#A78667;}
</style>
<path class="st0" d="M6,16c-1.1,0-2,0.9-2,2s0.9,2,2,2s2-0.9,2-2S7.1,16,6,16z M0,0v2h2l3.6,7.6L4.2,12C4.1,12.3,4,12.6,4,13
	c0,1.1,0.9,2,2,2h12v-2H6.4c-0.1,0-0.2-0.1-0.2-0.2l0-0.1L7.1,11h7.5c0.8,0,1.4-0.4,1.7-1l3.6-6.5C20,3.3,20,3.2,20,3
	c0-0.5-0.5-1-1-1H4.2L3.3,0H0z M16,16c-1.1,0-2,0.9-2,2s0.9,2,2,2s2-0.9,2-2S17.1,16,16,16z"/>
</svg>
