<?xml version="1.0" encoding="utf-8"?>
<!-- Generator: Adobe Illustrator 27.6.1, SVG Export Plug-In . SVG Version: 6.00 Build 0)  -->
<svg version="1.1" id="圖層_1" xmlns="http://www.w3.org/2000/svg" xmlns:xlink="http://www.w3.org/1999/xlink" x="0px" y="0px"
	 viewBox="0 0 20 18.3" style="enable-background:new 0 0 20 18.3;" xml:space="preserve">
<style type="text/css">
	.st0{fill:#FFFFFF;}
</style>
<path class="st0" d="M14.5,0c-1.7,0-3.4,0.8-4.5,2.1C8.9,0.8,7.2,0,5.5,0C2.4,0,0,2.4,0,5.5C0,9.3,3.4,12.4,8.6,17l1.4,1.3l1.4-1.3
	C16.6,12.4,20,9.3,20,5.5C20,2.4,17.6,0,14.5,0z M10.1,15.6H10l-0.1-0.1C5.1,11.2,2,8.4,2,5.5C2,3.5,3.5,2,5.5,2c1.5,0,3,1,3.6,2.4
	H11C11.5,3,13,2,14.5,2c2,0,3.5,1.5,3.5,3.5C18,8.4,14.9,11.2,10.1,15.6z"/>
</svg>
