<svg width="56" height="58" viewBox="0 0 56 58" fill="none" xmlns="http://www.w3.org/2000/svg">
<g opacity="0.7">
<rect width="56" height="58" rx="3" fill="#AC9E91"/>
<path d="M23.3218 19L28.0022 11.2727L32.6862 19H23.3218Z" fill="white"/>
<path d="M11.9562 31V22.2727H15.3994C16.0613 22.2727 16.6252 22.3991 17.0911 22.652C17.557 22.902 17.9121 23.25 18.1565 23.696C18.4036 24.1392 18.5272 24.6506 18.5272 25.2301C18.5272 25.8097 18.4022 26.321 18.1522 26.7642C17.9022 27.2074 17.54 27.5526 17.0656 27.7997C16.594 28.0469 16.0229 28.1705 15.3525 28.1705H13.1579V26.6918H15.0542C15.4093 26.6918 15.7019 26.6307 15.932 26.5085C16.165 26.3835 16.3383 26.2116 16.4519 25.9929C16.5684 25.7713 16.6266 25.517 16.6266 25.2301C16.6266 24.9403 16.5684 24.6875 16.4519 24.4716C16.3383 24.2528 16.165 24.0838 15.932 23.9645C15.6991 23.8423 15.4036 23.7812 15.0457 23.7812H13.8013V31H11.9562ZM20.8222 31H18.8449L21.8577 22.2727H24.2355L27.244 31H25.2668L23.0807 24.267H23.0125L20.8222 31ZM20.6986 27.5696H25.369V29.0099H20.6986V27.5696ZM34.2712 25.0938C34.2116 24.8864 34.1278 24.7031 34.0198 24.544C33.9119 24.3821 33.7798 24.2457 33.6235 24.1349C33.4701 24.0213 33.294 23.9347 33.0951 23.875C32.8991 23.8153 32.6817 23.7855 32.4431 23.7855C31.9971 23.7855 31.605 23.8963 31.267 24.1179C30.9317 24.3395 30.6704 24.6619 30.4829 25.0852C30.2954 25.5057 30.2016 26.0199 30.2016 26.6278C30.2016 27.2358 30.294 27.7528 30.4786 28.179C30.6633 28.6051 30.9246 28.9304 31.2627 29.1548C31.6008 29.3764 31.9999 29.4872 32.4602 29.4872C32.8778 29.4872 33.2343 29.4134 33.5298 29.2656C33.8281 29.1151 34.0553 28.9034 34.2116 28.6307C34.3707 28.358 34.4502 28.0355 34.4502 27.6634L34.8252 27.7188H32.5752V26.3295H36.2272V27.429C36.2272 28.196 36.0653 28.8551 35.7414 29.4062C35.4175 29.9545 34.9715 30.3778 34.4033 30.6761C33.8352 30.9716 33.1846 31.1193 32.4516 31.1193C31.6335 31.1193 30.9147 30.9389 30.2954 30.5781C29.6761 30.2145 29.1931 29.6989 28.8465 29.0312C28.5028 28.3608 28.3309 27.5653 28.3309 26.6449C28.3309 25.9375 28.4332 25.3068 28.6377 24.7528C28.8451 24.196 29.1349 23.7244 29.507 23.3381C29.8792 22.9517 30.3124 22.6577 30.8067 22.456C31.3011 22.2543 31.8366 22.1534 32.4133 22.1534C32.9076 22.1534 33.3678 22.2259 33.794 22.3707C34.2201 22.5128 34.5979 22.7145 34.9275 22.9759C35.2599 23.2372 35.5312 23.5483 35.7414 23.9091C35.9516 24.267 36.0866 24.6619 36.1462 25.0938H34.2712ZM38.2132 31V22.2727H44.0939V23.794H40.0584V25.8736H43.7913V27.3949H40.0584V29.4787H44.1109V31H38.2132ZM15.4394 41.794V40.2727H22.607V41.794H19.9352V49H18.1113V41.794H15.4394ZM32.0089 44.6364C32.0089 45.5881 31.8285 46.3977 31.4677 47.0653C31.1097 47.733 30.6211 48.2429 30.0018 48.5952C29.3853 48.9446 28.6921 49.1193 27.9222 49.1193C27.1467 49.1193 26.4506 48.9432 25.8342 48.5909C25.2177 48.2386 24.7305 47.7287 24.3725 47.0611C24.0146 46.3935 23.8356 45.5852 23.8356 44.6364C23.8356 43.6847 24.0146 42.875 24.3725 42.2074C24.7305 41.5398 25.2177 41.0312 25.8342 40.6818C26.4506 40.3295 27.1467 40.1534 27.9222 40.1534C28.6921 40.1534 29.3853 40.3295 30.0018 40.6818C30.6211 41.0312 31.1097 41.5398 31.4677 42.2074C31.8285 42.875 32.0089 43.6847 32.0089 44.6364ZM30.1381 44.6364C30.1381 44.0199 30.0458 43.5 29.8612 43.0767C29.6793 42.6534 29.4222 42.3324 29.0898 42.1136C28.7575 41.8949 28.3683 41.7855 27.9222 41.7855C27.4762 41.7855 27.087 41.8949 26.7546 42.1136C26.4222 42.3324 26.1637 42.6534 25.979 43.0767C25.7972 43.5 25.7063 44.0199 25.7063 44.6364C25.7063 45.2528 25.7972 45.7727 25.979 46.196C26.1637 46.6193 26.4222 46.9403 26.7546 47.1591C27.087 47.3778 27.4762 47.4872 27.9222 47.4872C28.3683 47.4872 28.7575 47.3778 29.0898 47.1591C29.4222 46.9403 29.6793 46.6193 29.8612 46.196C30.0458 45.7727 30.1381 45.2528 30.1381 44.6364ZM33.9757 49V40.2727H37.4189C38.0808 40.2727 38.6447 40.3991 39.1107 40.652C39.5766 40.902 39.9317 41.25 40.176 41.696C40.4232 42.1392 40.5467 42.6506 40.5467 43.2301C40.5467 43.8097 40.4217 44.321 40.1717 44.7642C39.9217 45.2074 39.5595 45.5526 39.0851 45.7997C38.6135 46.0469 38.0425 46.1705 37.372 46.1705H35.1774V44.6918H37.0737C37.4288 44.6918 37.7214 44.6307 37.9516 44.5085C38.1845 44.3835 38.3578 44.2116 38.4714 43.9929C38.5879 43.7713 38.6462 43.517 38.6462 43.2301C38.6462 42.9403 38.5879 42.6875 38.4714 42.4716C38.3578 42.2528 38.1845 42.0838 37.9516 41.9645C37.7186 41.8423 37.4232 41.7812 37.0652 41.7812H35.8209V49H33.9757Z" fill="white"/>
</g>
</svg>
