<?xml version="1.0" encoding="utf-8"?>
<!-- Generator: Adobe Illustrator 27.8.1, SVG Export Plug-In . SVG Version: 6.00 Build 0)  -->
<svg version="1.1" id="圖層_1" xmlns="http://www.w3.org/2000/svg" xmlns:xlink="http://www.w3.org/1999/xlink" x="0px" y="0px"
	 viewBox="0 0 128 23" style="enable-background:new 0 0 128 23;" xml:space="preserve">
<style type="text/css">
	.st0{fill-rule:evenodd;clip-rule:evenodd;fill:#BCB8B1;}
	.st1{fill:#BCB8B1;}
</style>
<path class="st0" d="M1.1,1.2v20.3h4.5v-7.8H7l5.9,7.8h5.6l-7.1-9c1.2-0.7,2.1-1.4,2.7-2.2l0,0l0,0c0.8-1,1.1-2.3,1.1-3.7
	c0-1.1-0.3-2-0.8-2.9c-0.6-0.8-1.4-1.4-2.4-1.8c-1-0.4-2.7-0.6-4.9-0.6H1.1z M6.3,10H5.6V5h1c0.9,0,1.6,0,2.2,0.1
	c0.6,0.1,1,0.2,1.2,0.3c0.3,0.2,0.6,0.6,0.6,1.5c0,0.9-0.3,1.6-1,2.1C8.8,9.6,7.8,10,6.3,10z M25,1.2v20.3h15v-3.8H29.5v-4.9h8.3V9
	h-8.3V5h9.8V1.2H25z M74.5,17.7v3.8h4.5v-3.8V5V1.2h-4.5V5V17.7z M112,1.2v20.3h15v-3.8h-10.5v-4.9h8.3V9h-8.3V5h9.8V1.2H112z"/>
<path class="st1" d="M46.9,21.5l8-20.3h4l8,20.3h-4.8l-1.8-4.7l-1.5-3.8l-2.2-5.8l-5.5,14.3H46.9z"/>
<path class="st0" d="M102.9,8l2.9-2.9c-2-2.7-5.1-4.4-8.7-4.4c-5.9,0-10.8,4.8-10.8,10.7c0,5.9,4.8,10.7,10.8,10.7
	c3.5,0,6.5-1.6,8.5-4.1l-2.8-2.8c-1.2,1.6-3,2.7-5.2,2.7c-3.5,0-6.4-2.8-6.4-6.3c0-3.5,2.8-6.3,6.4-6.3C99.8,5.2,101.8,6.3,102.9,8z
	"/>
</svg>
