<svg width="275" height="40" viewBox="0 0 275 40" fill="none" xmlns="http://www.w3.org/2000/svg">
<path d="M8.92563 16.7656H9.93975C12.2741 16.7656 14.2668 16.7992 13.8047 19.8949C13.3573 22.8908 11.2047 22.8908 9.02437 22.8908H8.00927L8.92563 16.7656ZM0 36.183H6.02349L7.24004 28.0384H10.6517C15.9079 28.0384 19.2357 25.4977 20.1036 19.6984C20.944 14.0629 17.869 11.62 12.8893 11.62H3.66939L0 36.183Z" fill="#0047AE"/>
<path d="M45.202 12.8008L43.6665 23.0792H43.7179C45.0085 21.5724 46.4077 20.8732 48.2098 20.8732C51.5089 20.8732 52.762 23.1878 52.2396 26.6844L50.9777 35.1311H46.3583L47.4169 28.056C47.6569 26.4415 47.6776 24.7747 45.8241 24.7747C43.9963 24.7747 43.1629 26.4415 42.923 28.056L41.8654 35.1311H37.2461L40.5837 12.8008H45.202Z" fill="#0090EB"/>
<path d="M61.889 25.126C63.7671 25.126 64.646 26.5529 64.3912 28.2454C64.1295 29.9942 62.8389 31.3401 60.9598 31.3401C59.0826 31.3401 58.1929 29.9942 58.4536 28.2454C58.7054 26.5519 60.0108 25.126 61.889 25.126ZM62.5229 20.874C58.3361 20.874 54.2846 23.5372 53.5785 28.2444C52.8755 32.9536 56.1637 35.5911 60.3248 35.5911C64.5126 35.5911 68.5642 32.9269 69.2643 28.2444C69.9683 23.5382 66.7117 20.874 62.5229 20.874Z" fill="#0090EB"/>
<path d="M76.232 23.0514H76.2824C77.6046 21.5188 79.0463 20.874 80.721 20.874C82.5981 20.874 84.103 21.6808 84.7686 23.5086C85.914 21.7884 87.8011 20.874 89.5795 20.874C92.8786 20.874 93.6784 23.159 93.2054 26.3347L91.8901 35.1319H87.2708L88.2553 28.5416C88.4676 27.1157 88.8685 24.7745 86.9153 24.7745C84.7824 24.7745 84.3894 26.8985 84.1445 28.5416L83.159 35.1319H78.5397L79.5242 28.5416C79.7533 27.0061 80.1028 24.6678 78.0479 24.6678C75.9911 24.6678 75.6425 27.0061 75.4124 28.5416L74.4279 35.1319H69.8086L71.8724 21.3312H76.4897L76.232 23.0514Z" fill="#0090EB"/>
<path d="M99.4632 26.23C99.955 24.8011 101.185 24.0497 102.529 24.0497C103.773 24.0497 104.787 24.9088 104.819 26.23H99.4632ZM108.761 28.5426C109.464 23.8334 107.293 20.874 102.775 20.874C98.536 20.874 95.153 23.6458 94.4657 28.2444C93.7538 33.0079 96.5917 35.5911 100.905 35.5911C103.876 35.5911 107.015 34.1099 108.238 30.8552H103.796C103.153 31.7706 102.388 32.1202 101.401 32.1202C99.4958 32.1202 98.6674 31.0438 98.9646 29.0521H108.685L108.761 28.5426Z" fill="#0090EB"/>
<path d="M37.813 20.0428L38.9032 12.7554C37.6935 12.1876 36.4572 11.8015 35.1232 11.6484L34.2266 17.5702C35.7472 17.8378 37.0635 18.6781 37.813 20.0428Z" fill="#0090EB"/>
<path d="M36.6496 27.8282C35.4676 29.0882 33.8818 29.9542 32.3078 30.2188L31.4102 36.1426C32.7432 36.0014 33.9785 35.6113 35.5595 35.1196L36.6496 27.8282Z" fill="#0090EB"/>
<path d="M31.4104 36.1422L32.308 30.2174C31.9822 30.2717 31.6553 30.3083 31.3334 30.3083C27.7628 30.3083 25.7622 27.6421 26.3142 23.951C26.8563 20.3221 29.6537 17.4674 33.1651 17.4674C33.5275 17.4674 33.8801 17.5088 34.2266 17.5691L35.1233 11.6473C34.7066 11.5999 34.279 11.5732 33.8396 11.5732C30.738 11.5732 27.3944 13.0001 24.8754 15.3562C22.4265 17.653 20.8269 20.725 20.3499 23.9194C19.8305 27.3953 20.4891 30.4347 22.5677 32.7621C24.5209 34.9622 27.2621 36.2044 30.3361 36.2044C30.7064 36.2044 31.0609 36.1787 31.4104 36.1422Z" fill="#0047AE"/>
<path d="M71.3471 12.561C72.2467 12.561 72.7632 13.42 72.6378 14.2702C72.5202 15.0651 71.7007 16.0783 70.8287 16.0783C69.9568 16.0783 69.4354 15.0651 69.552 14.2702C69.6774 13.42 70.4466 12.561 71.3471 12.561ZM70.6796 17.0904C72.2141 17.0904 73.4702 15.8196 73.6924 14.3127C73.9076 12.8404 73.0308 11.5508 71.4953 11.5508C69.9608 11.5508 68.7027 12.8404 68.4865 14.3127C68.2633 15.8196 69.1431 17.0904 70.6796 17.0904Z" fill="#969696"/>
<path d="M78.0891 11.5486H78.8297L81.0574 15.2249H81.0732L81.5936 11.6878H82.6195L81.8286 17.0527H81.088L78.8593 13.3754H78.8465L78.3192 16.948H77.2942L78.0891 11.5486Z" fill="#969696"/>
<path d="M87.2374 16.055H88.687L88.5557 16.9487H86.0771L86.8553 11.6875H87.8783L87.2374 16.055Z" fill="#969696"/>
<path d="M93.4 16.9496H92.374L93.1492 11.6895H94.1771L93.4 16.9496Z" fill="#969696"/>
<path d="M98.4316 11.5486H99.1703L101.399 15.2249H101.414L101.934 11.6878H102.96L102.169 17.0527H101.43L99.2018 13.3754H99.189L98.6607 16.948H97.6357L98.4316 11.5486Z" fill="#969696"/>
<path d="M108.091 12.5811L107.92 13.7394H109.554L109.423 14.6321H107.789L107.578 16.055H109.275L109.142 16.9487H106.42L107.197 11.6875H109.917L109.786 12.5811H108.091Z" fill="#969696"/>
<path d="M210.41 24.8138C210.06 26.7117 209.349 28.8989 208.277 31.3715L205.62 30.5105C206.715 27.9055 207.414 25.7638 207.716 24.0851L210.41 24.8138ZM215.141 23.07H206.897C206.64 23.07 206.512 22.9386 206.512 22.673V1.35479C206.535 1.11286 206.663 0.991407 206.897 0.991407H215.141C215.421 1.01412 215.561 1.13558 215.561 1.35479V22.673C215.561 22.9386 215.421 23.07 215.141 23.07ZM212.786 7.50665V3.70593C212.786 3.63878 212.74 3.60521 212.647 3.60521H209.391C209.322 3.60521 209.286 3.63878 209.286 3.70593V7.50665H212.786ZM212.786 10.1205H209.286V13.9814H212.786V10.1205ZM209.286 16.5952V20.3238C209.286 20.4117 209.322 20.4562 209.391 20.4562H212.647C212.74 20.4562 212.786 20.4117 212.786 20.3238V16.5952H209.286ZM214.082 24.2836C214.873 25.6976 215.561 27.475 216.143 29.6168L213.626 30.4107C212.927 28.1593 212.25 26.4253 211.598 25.2108L214.082 24.2836ZM221.151 31.254H218.376V26.6495H216.487V24.3171H218.376V15.5021C218.376 15.1061 218.585 14.9067 219.004 14.9067H226.339V13.0157H216.912V10.6833H222.155V8.75282H218.17V6.42045H222.155V4.65092H217.191V2.31855H222.155V0.133307H224.931V2.31855H230.843V0H233.618V2.31855H238.373V4.65092H233.618V6.42045H237.674V8.75282H233.618V10.6833H238.933V13.0157H229.114V14.9067H236.571C237.015 14.9067 237.238 15.1061 237.238 15.5021V24.3171H238.915V26.6495H237.238V28.4388C237.238 29.4973 236.803 30.3041 235.938 30.8561C234.791 31.5404 232.808 31.6391 229.987 31.1543L229.847 28.2729C231.946 28.8022 233.238 28.9019 233.728 28.5701C234.217 28.261 234.463 27.8641 234.463 27.3782V26.6495H221.151V31.254ZM226.339 17.239H221.358C221.22 17.239 221.151 17.3062 221.151 17.4405V19.6919H226.339V17.239ZM226.339 22.0252H221.151V24.3171H226.339V22.0252ZM230.843 4.65092H224.931V6.42045H230.843V4.65092ZM230.843 8.75282H224.931V10.6833H230.843V8.75282ZM229.114 19.6919H234.463V17.4405C234.463 17.3062 234.381 17.239 234.218 17.239H229.114V19.6919ZM234.463 22.0252H229.114V24.3171H234.463V22.0252Z" fill="#DD0000"/>
<path d="M247.904 9.197H245.526C245.082 12.112 244.686 14.0987 244.336 15.1583L241.365 14.7613C242.506 11.2716 243.077 7.33663 243.077 2.95627V1.20057H245.973V2.95627C245.951 3.7729 245.891 4.88872 245.8 6.30079H247.904V0.00772095H250.961V6.30079H254.037V9.197H250.961V17.4107C252.009 16.8152 252.93 16.2741 253.723 15.7873L255.472 18.1394C254.164 18.956 252.662 19.7628 250.961 20.5577V31.4553H247.904V21.9155C246.342 22.5573 244.744 23.1853 243.114 23.8035L241.47 21.1867C244.081 20.3039 246.225 19.5199 247.904 18.8356V9.197ZM264.322 6.90412C264.159 8.29545 263.96 9.62062 263.727 10.8786C262.656 15.4496 259.742 20.065 254.987 24.7238L252.364 23.1675C255.767 19.8991 258.134 16.9732 259.462 14.39C260.347 12.6008 260.977 10.1064 261.35 6.90412H258.799C257.727 9.84082 256.561 12.2038 255.301 13.9921L252.364 12.899C255.139 8.90274 256.805 4.63692 257.364 0.100542L260.372 0.4975C260.115 1.75651 259.87 2.92664 259.637 4.0089H273.412C273.645 4.0089 273.843 4.05235 274.006 4.14023C274.356 4.33772 274.531 4.84231 274.531 5.654C274.507 10.617 274.45 15.019 274.356 18.8612C274.146 25.2649 272.922 29.195 270.686 30.6525C269.31 31.557 266.687 31.5027 262.818 30.4876L262.678 27.1085C265.989 28.168 268.075 28.4001 268.938 27.8037C269.543 27.3633 270.09 26.5012 270.581 25.2215C271.022 23.8301 271.279 21.5659 271.35 18.4307C271.582 11.2321 271.582 7.46697 271.35 7.13618C271.256 6.98114 271.127 6.90412 270.965 6.90412H269.496C269.379 11.4316 268.308 15.9907 266.28 20.5834C264.251 24.4483 261.303 27.7049 257.435 30.3543L255.022 28.2352C262.363 24.1718 266.174 17.0621 266.454 6.90412H264.322Z" fill="#DD0000"/>
<path d="M202.814 23.8816H171.522L171.991 22.1387H203.281L202.814 23.8816Z" fill="#DD0000"/>
<path d="M201.867 27.3669H170.574L171.04 25.626H202.333L201.867 27.3669Z" fill="#DD0000"/>
<path d="M200.929 30.862H169.637L170.105 29.1182H201.398L200.929 30.862Z" fill="#DD0000"/>
<path d="M135.359 6.86389C135.518 6.27043 135.484 5.83694 135.264 5.56539C135.042 5.29087 134.625 5.15559 134.012 5.15559C133.348 5.15559 132.849 5.28001 132.512 5.52984C132.174 5.77966 131.922 6.22501 131.75 6.86389L130.675 11.3242H120.078L120.532 9.18343C121.4 5.93568 122.983 3.63589 125.281 2.28308C127.577 0.933223 130.976 0.258789 135.478 0.258789C139.686 0.258789 142.654 0.919398 144.381 2.24358C146.108 3.56677 146.613 5.56637 145.894 8.24534C145.056 11.3736 141.38 15.4676 134.872 20.5244C133.605 21.5266 132.649 22.286 132.001 22.8005C129.666 24.6559 127.418 26.6288 126.554 27.8108C125.836 28.7933 125.514 29.532 125.514 29.532L140.264 29.5379L138.626 35.6423H113.364L114.892 29.9427C115.27 28.5267 116.036 27.1226 117.188 25.7253C118.339 24.3261 120.426 22.4331 123.446 20.0455C124.127 19.5152 125.095 18.7618 126.357 17.7891C131.47 13.8235 134.229 11.0774 134.636 9.56163L135.359 6.86389Z" fill="#DD0000"/>
<path d="M152.538 35.6352L154.752 27.3662H139.396L140.795 22.1327L156.106 0.995178H170.652L165.455 20.3849L156.693 20.3938L161.509 6.5516H160.481L150.236 22.1327H170.13L168.733 27.3662H163.588L161.369 35.6352H152.538Z" fill="#DD0000"/>
<path d="M172.455 20.3878L177.649 0.995117H187.094L184.601 10.3019H184.75C185.715 9.32629 186.805 8.60644 188.022 8.14135C189.241 7.67922 190.613 7.44815 192.148 7.44815C194.212 7.44815 195.656 7.84412 196.476 8.63902C197.297 9.43294 197.494 10.6149 197.073 12.1889L194.878 20.3878H185.354L187.009 14.2043C187.181 13.5645 187.168 13.1339 186.971 12.9058C186.776 12.6787 186.358 12.5661 185.724 12.5661C185.134 12.5661 184.664 12.6985 184.311 12.9641C183.957 13.2317 183.705 13.6435 183.554 14.2043L181.899 20.3878H172.455Z" fill="#DD0000"/>
</svg>
