<?xml version="1.0" encoding="utf-8"?>
<!-- Generator: Adobe Illustrator 27.8.1, SVG Export Plug-In . SVG Version: 6.00 Build 0)  -->
<svg version="1.1" id="圖層_1" xmlns="http://www.w3.org/2000/svg" xmlns:xlink="http://www.w3.org/1999/xlink" x="0px" y="0px"
	 viewBox="0 0 186 82" style="enable-background:new 0 0 186 82;" xml:space="preserve">
<style type="text/css">
	.st0{fill:#F7422F;}
</style>
<path class="st0" d="M21.2,63.8h-2.6v2.6h2.6V63.8z"/>
<path class="st0" d="M32.4,56.8c-0.3-0.2-0.7-0.5-1-0.9c-1.4-1.2-3.1-2.8-4.4-4.2c-0.2-0.2-0.5-0.5-0.7-0.8c0,0,0-0.1-0.1-0.1
	c-0.2-0.3-0.4-0.6-0.6-0.9c-0.2,0.1-0.4,0.3-0.7,0.4l0,0c-0.1,0-0.2,0.1-0.2,0.2c-0.1,0-0.2,0.1-0.2,0.2l0,0
	c-0.1,0.1-0.2,0.1-0.3,0.2c-0.1,0.1-0.2,0.1-0.3,0.2c0,0,0,0-0.1,0c-0.1,0.1-0.2,0.2-0.3,0.2c-0.1,0.1-0.2,0.2-0.3,0.2l0,0
	C23.2,52,23.1,52,23,52.2c-0.1,0.1-0.2,0.2-0.3,0.3l0,0c-0.2,0.2-0.4,0.4-0.6,0.6l0,0c-0.2,0.2-0.4,0.4-0.5,0.7l0,0
	c-0.2,0.2-0.3,0.4-0.4,0.7l0,0c-0.1,0.1-0.1,0.2-0.2,0.4c-0.2,0.4-0.3,0.8-0.4,1.3v0.2v5.5c0.5,0.2,1.8,0.7,3.5,0.6
	c1.1,0,2.3-0.2,3.6-0.7c1.8-0.7,3.9-2,5.9-4.2C33.2,57.5,32.9,57.2,32.4,56.8z"/>
<path class="st0" d="M37.6,35.9l-0.9,0.7l-8,6.2l-1,0.8l-1.4,1.1v1.6v2.6v0l0,0.1l0,0.1c0,0.1,0.1,0.2,0.1,0.2
	c0.8,1.5,3.4,4,5.4,5.7c0.2,0.2,0.5,0.4,0.7,0.6c0.9-0.7,4.8-3.8,6.2-7.3c0.1-0.2,0.1-0.4,0.2-0.5v-13L37.6,35.9z"/>
<path class="st0" d="M19.4,62v-5.5v-0.2c0-0.4-0.2-0.9-0.4-1.3c0-0.1-0.1-0.2-0.2-0.3c0,0,0-0.1,0-0.1c0-0.1-0.1-0.2-0.2-0.2
	c0,0,0,0,0-0.1c-0.1-0.1-0.1-0.2-0.2-0.3c0,0,0-0.1-0.1-0.1c0-0.1-0.1-0.1-0.2-0.2c0-0.1-0.1-0.1-0.2-0.2c0,0-0.1-0.1-0.2-0.2
	c0,0-0.1-0.1-0.1-0.2c0,0-0.1-0.1-0.1-0.1c-0.1-0.1-0.2-0.2-0.3-0.3c0,0,0,0-0.1-0.1c-0.1-0.1-0.1-0.1-0.2-0.2l0,0
	c-0.9-0.9-1.9-1.6-2.6-2.1c-0.2-0.1-0.3-0.2-0.4-0.3c-0.2,0.3-0.4,0.6-0.6,0.9c0,0,0,0.1-0.1,0.1c-0.2,0.2-0.4,0.5-0.7,0.8
	c-0.5,0.5-1,1.1-1.5,1.6c-0.2,0.2-0.4,0.4-0.6,0.5c-0.2,0.2-0.4,0.4-0.6,0.5c-0.2,0.2-0.4,0.4-0.6,0.5c-0.4,0.3-0.7,0.7-1.1,1
	c-0.4,0.3-0.7,0.6-1,0.9c-0.3,0.3-0.6,0.5-0.9,0.7c0,0,0,0,0,0c-0.1,0.1-0.2,0.1-0.2,0.2C12.2,64.3,18,62.6,19.4,62z"/>
<path class="st0" d="M26.2,35.7l1.9,2.5c0.2,0.2,0.4,0.5,0.5,0.7l0.1,0.1v0.5v0v1.8l7.8-6c-0.7-3.3-2.7-10.3-7-14.2l-1.1,1.8
	l-0.1,0.2v0l-0.4,0.6L27.3,25l-4,7C24.2,33.1,25.2,34.5,26.2,35.7z"/>
<path class="st0" d="M10.2,52.9c0.4-0.4,0.8-0.8,1.2-1.2l0,0c0.2-0.2,0.3-0.4,0.5-0.5l0,0c0.2-0.3,0.4-0.5,0.7-0.8c0,0,0,0,0,0
	c0.3-0.4,0.5-0.7,0.7-1c0-0.1,0.1-0.2,0.1-0.2c0,0,0,0,0,0l0.1-0.2v-4.2L12,43.5l-1-0.8l-8-6.2l-0.9-0.7l-1.3-1v13
	c1.2,3.6,5.4,7,6.4,7.8C8,54.9,9.1,53.9,10.2,52.9z"/>
<path class="st0" d="M19.4,28l0.4-0.5l0,0l0,0l0.4,0.5c0.7,0.8,1.4,1.8,2.3,3.1l4-7c-1.5-2-3.4-4.4-4.8-6.3c-0.7-1-1.4-1.9-2-2.6
	l0,0l0,0c-0.6,0.7-1.2,1.6-2,2.6c-1.4,1.8-3.3,4.3-4.8,6.3l4,7C18,29.9,18.8,28.9,19.4,28z"/>
<path class="st0" d="M14.4,49.1c1.1,0.7,4.2,2.8,5.5,5.4c1.2-2.6,4.3-4.7,5.4-5.4v-0.6v-2v-2.3l0.1-0.1l2.4-1.8V40v-0.2v-0.3
	c-0.1-0.2-0.2-0.3-0.3-0.4v0c-0.2-0.3-0.4-0.6-0.7-0.9l-0.6-0.8c-1.1-1.4-2.3-3-3.3-4.4l-1.4-1.8c-0.5-0.7-1-1.3-1.5-1.9v0l0,0
	c-0.4,0.6-0.9,1.2-1.5,1.9L17,32.9c-1.1,1.4-2.2,2.9-3.3,4.4L13,38.1c-0.2,0.3-0.5,0.7-0.7,0.9v0c-0.1,0.2-0.2,0.3-0.3,0.4V40v0v2.3
	l1.3,1l1.1,0.9v2.3L14.4,49.1L14.4,49.1z"/>
<path class="st0" d="M11,39.7v-0.5l0.1-0.1c0.1-0.1,0.2-0.3,0.3-0.4l1.8-2.3c1.1-1.4,2.2-3,3.3-4.3l-1.6-2.8l-3.5-6l-1.1-1.9
	C6,25.2,4,32.2,3.2,35.5l7.8,6V39.7L11,39.7z"/>
<path class="st0" d="M118.9,44.8l1.3,1.3c2.1-2,2.1-2.3,3.1-5.3l-1.8-0.6C120.6,43,120.8,43,118.9,44.8z"/>
<path class="st0" d="M125.3,41.3l3.2,4.7l1.6-1l-3.2-4.7L125.3,41.3z"/>
<path class="st0" d="M127.1,15.5h-5.3c-2,0-3.6,1.6-3.6,3.6v0v10.7v2.4v3.5v0c0,2,1.6,3.6,3.6,3.6h5.3c2,0,3.6-1.6,3.6-3.6v0V19.2v0
	C130.7,17.2,129.1,15.5,127.1,15.5z M128.5,35.8L128.5,35.8c0,0.8-0.6,1.4-1.3,1.4h-5.3c-0.7,0-1.3-0.6-1.3-1.3v0v-3.5h7.9V35.8z
	 M128.5,29.9h-7.9v-4.8h7.9V29.9z M128.5,19.2v3.5h-7.9v-3.5v0c0-0.7,0.6-1.3,1.3-1.3h5.3C127.9,17.8,128.5,18.4,128.5,19.2
	L128.5,19.2z"/>
<path class="st0" d="M150.1,38.8v-4.6c0-2.3-1.9-4.2-4.2-4.2h-2.8v-1.3h7.6v-2.3h-3.8v-2h3.2v-2.3h-3.2v-2h3.8V18h-3.8v-2.4h-2.3V18
	h-5.8v-2.4h-2.3V18h-3.8v2.3h3.8v2h-3.2v2.3h3.2v2h-3.8v2.3h8v1.3h-2.9c-2.3,0-4.2,1.9-4.2,4.2v4.5h-2.3v2.3h2.3l0,5h2.3l0-5h11.9
	v0.7c0,1.1-0.9,2-2,2h-1.8v2.3h1.8c2.3,0,4.2-1.9,4.2-4.2v-0.7h2.1v-2.3H150.1z M140.8,38.8H136v-1.9h4.8V38.8z M140.8,34.6H136
	v-0.4c0-1.1,0.9-2,2-2h2.9L140.8,34.6L140.8,34.6z M138.9,20.3h5.8v2h-5.8V20.3z M138.9,26.5v-2h5.8v2H138.9L138.9,26.5z
	 M147.8,38.8h-4.7v-1.9h4.7V38.8z M147.8,34.6h-4.7v-2.3h2.8c1.1,0,2,0.9,2,2L147.8,34.6L147.8,34.6z"/>
<path class="st0" d="M113.5,34.5h-9.2h-4.2v-0.9v-1.7v-0.8h7.3c2.3,0,4.2-1.9,4.2-4.2v-7c0-2.3-1.9-4.2-4.2-4.2H90.6
	c-2.3,0-4.2,1.9-4.2,4.2v7c0,2.3,1.9,4.2,4.2,4.2h7.3v1.1v1.4v0.9h-4.1h-9.2v2.3h9.1c-2.3,3.4-5.4,6-8.3,7.5l1.1,2
	c3.7-1.9,7.3-5.1,9.9-9.5h0.8h0.7v4.1v5.4h2.3v-9.5h0.6h1.5l9.2,9.4l1.6-1.6l-7.7-7.8h8V34.5L113.5,34.5z M100.2,17.9h7.3
	c1.1,0,2,0.9,2,2v2.4h-9.2V17.9L100.2,17.9z M100.2,24.5h9.2v2.4c0,1.1-0.9,2-2,2h-7.3V24.5z M97.9,28.8h-7.3c-1.1,0-2-0.9-2-2v-2.4
	h9.2L97.9,28.8L97.9,28.8z M97.9,22.3h-9.2v-2.4c0-1.1,0.9-2,2-2h7.3L97.9,22.3L97.9,22.3z"/>
<path class="st0" d="M50.2,30.4c0,7.5-0.1,9.4-0.9,15.1l2.3,0.4c0.9-5.7,0.9-7.6,0.9-15.5V29h-2.3V30.4z"/>
<path class="st0" d="M56.7,15.7h-2.3l0,8.3h-5.2v2.3h5.2v19.9h2.3V26.3h5.1V24h-5.1L56.7,15.7z"/>
<path class="st0" d="M58.6,28.9l0.1,16.7H61L61,28.9H58.6z"/>
<path class="st0" d="M69.5,16l-2.3-0.3c-0.9,6.8-2.5,11.4-4.7,16.5l2.1,0.9C66.9,27.9,68.5,23,69.5,16z"/>
<path class="st0" d="M79.2,32.4l-4.7-16.9l-2.2,0.7L77,33L79.2,32.4z"/>
<path class="st0" d="M74.5,37.7l1.3,4.6l-8.6,1.1l4.5-14.5l-2.2-0.7l-4.8,15.5l-1.3,0.2l0.3,2.3l12.7-1.6v0l0.5,1.6l2.2-0.7
	l-2.4-8.4L74.5,37.7z"/>
<path class="st0" d="M164.6,32.8l-0.7,0.3v-6.8h0.8h2.5v-2.3h0H164v-8.3h-2.3v8.3h-0.9h-1.9l0.9-4.4l-2.2-0.4l-1.5,7.1h4.2h1.3V34
	l-1,0.4l-5.2,2.2l0.9,2.1l4.3-1.8l1-0.4v9.5h2.3V35.6l0.6-0.2l4-1.8l-0.9-2.1L164.6,32.8z"/>
<path class="st0" d="M181.7,20.7h-9.4l2-4.6l-2.1-0.9l-4.2,9.9l2.1,0.9l1.3-3h1.3c-1.1,9.9-1.8,13.4-3.7,19.6l2.2,0.7
	c2.1-6.5,2.8-10.2,3.9-20.3h3.6c-0.8,9.8-2.4,16.1-4.2,22.4l2.2,0.7c1.9-6.5,3.5-12.9,4.4-23.1h0.9c1.1,0,1.9,0.9,1.9,1.9l-0.2,16.6
	c0,1.1-0.9,1.9-1.9,1.9h-2.6v2.3h2.6c2.3,0,4.2-1.9,4.2-4.2l0.2-16.6C185.9,22.6,184,20.7,181.7,20.7z"/>
<path class="st0" d="M50.2,63.5c-0.4,1.6-0.8,2.4-1.1,2.5c-0.1,0-0.3,0-0.4,0c-0.1-0.1-0.2-0.2-0.3-0.3c0-0.2,0-0.3,0-0.5
	c0.9-2,1.4-4.2,1.3-6.7v-1.9H49c-0.2,0-0.3,0-0.4-0.2c-0.1-0.1-0.2-0.2-0.2-0.4c0-0.2,0-0.3,0.2-0.4c0.1-0.1,0.2-0.2,0.4-0.2h1.9
	c0-0.9,0-1.3,0.1-1.5c0.1-0.1,0.2-0.2,0.4-0.2c0.2,0,0.3,0,0.4,0.2c0.1,0.1,0.2,0.2,0.2,0.4c0,0.4,0,0.7,0,1.1h2
	c0.2,0,0.3,0,0.4,0.1c0.1,0.1,0.2,0.2,0.2,0.4c0,0.2,0,0.3-0.2,0.4c-0.1,0.1-0.2,0.2-0.4,0.2h-3.1V58h1.6c0.4,0,0.7,0.1,0.9,0.3
	c0.2,0.2,0.3,0.4,0.3,0.7c0,2.4-0.1,4.2-0.2,5.3c-0.2,0.8-0.4,1.3-0.7,1.5c-0.2,0.2-0.5,0.2-1,0.2c-0.4,0-0.7,0-1.1-0.1
	c-0.2-0.1-0.4-0.2-0.4-0.3c-0.1-0.2-0.1-0.3-0.1-0.5c0.1-0.4,0.4-0.5,0.9-0.4c0.5,0.2,0.8,0.2,1,0c0.2-0.2,0.4-1,0.4-2.4
	c0-0.9,0-1.8,0-2.5c0-0.2,0-0.4-0.2-0.5c-0.1-0.1-0.3-0.2-0.5-0.2h-1.1C50.7,60.9,50.5,62.4,50.2,63.5z M55.2,58.7
	c-0.3,0.5-0.5,0.8-0.7,0.8c-0.2,0-0.3,0-0.4-0.1c-0.1-0.1-0.2-0.2-0.2-0.4c0-0.2,0-0.3,0.1-0.5c0.7-1.3,1.1-2.7,1.2-4.2
	c0-0.2,0.1-0.3,0.2-0.4c0.1-0.1,0.2-0.2,0.4-0.1c0.2,0,0.3,0.1,0.4,0.2c0.1,0.1,0.1,0.3,0.1,0.5c0,0.4-0.1,0.7-0.1,1h4.1
	c0.2,0,0.3,0,0.4,0.1c0.1,0.1,0.2,0.2,0.2,0.4c0,0.2,0,0.3-0.2,0.4c-0.1,0.1-0.2,0.2-0.4,0.2h-0.7c0,2.2-0.5,4.2-1.5,6.1
	c0.7,0.9,1.5,1.6,2.4,2.3c0.2,0.1,0.2,0.3,0.3,0.4c0,0.2,0,0.3-0.1,0.4s-0.2,0.2-0.4,0.2c-0.1,0-0.2,0-0.4-0.1
	c-0.9-0.7-1.7-1.5-2.4-2.4c-0.3,0.4-0.7,0.7-1.1,1.2c-1.1,1-1.8,1.4-2,1.3c-0.2,0-0.3-0.1-0.4-0.2c-0.1-0.2-0.1-0.3-0.1-0.4
	c0-0.2,0.1-0.3,0.3-0.4c1.1-0.8,2-1.5,2.7-2.4C55.9,61.5,55.5,60.2,55.2,58.7z M58.5,56.6h-2.3c0,1.1,0,1.7,0.1,1.9
	c0.2,1.3,0.5,2.4,1.1,3.2c0.4-0.8,0.7-1.7,0.9-2.6C58.4,58.4,58.5,57.5,58.5,56.6z"/>
<path class="st0" d="M72.4,59.7c-0.8,2.4-2.2,4.3-4.3,5.7c-0.8,0.5-1.3,0.7-1.5,0.6c-0.2,0-0.2-0.1-0.4-0.3
	c-0.1-0.2-0.1-0.3-0.1-0.4c0.1-0.3,0.2-0.4,0.4-0.4c2.7-1.3,4.4-3.7,5-6.9h-4.6c-0.2,0-0.3,0-0.4-0.2s-0.2-0.2-0.2-0.4
	c0-0.2,0-0.3,0.2-0.4s0.2-0.2,0.4-0.2h4.7c0-0.2,0-0.4,0-0.7v-1.5c0-0.2,0-0.4,0.2-0.5c0.1-0.1,0.2-0.2,0.4-0.2
	c0.2,0,0.3,0.1,0.4,0.2c0.1,0.1,0.2,0.3,0.2,0.5v1.5c0,0.2,0,0.4,0,0.7h4.8c0.2,0,0.3,0,0.4,0.2c0.1,0.1,0.2,0.2,0.2,0.4
	c0,0.2,0,0.3-0.2,0.4C78,58,77.9,58,77.7,58h-4.6c0,0,0,0.1,0,0.1c0.3,1.3,0.8,2.5,1.5,3.5c0.9,1.3,2.1,2.4,3.6,3.4
	c0.2,0.1,0.3,0.3,0.3,0.4c0,0.2,0,0.3-0.1,0.5c-0.1,0.2-0.2,0.2-0.4,0.3s-0.4,0-0.5-0.2C74.9,64.2,73.2,62,72.4,59.7
	C72.5,59.6,72.5,59.6,72.4,59.7z"/>
<path class="st0" d="M84.8,60.5c-0.2,0-0.3,0-0.4-0.1c-0.2-0.1-0.2-0.2-0.2-0.4c0-0.2,0-0.3,0.1-0.4c1-1.5,1.7-3.3,1.9-5.1
	c0-0.2,0.1-0.3,0.2-0.4c0.1-0.1,0.2-0.1,0.4-0.1c0.2,0,0.3,0.1,0.4,0.2c0.1,0.1,0.1,0.3,0.1,0.5c-0.2,1.2-0.4,2.2-0.8,3
	c0,0,0,0.1,0,0.1c0,2.7,0,5.3,0,8c0,0.2,0,0.3-0.2,0.4s-0.2,0.2-0.4,0.2s-0.3,0-0.4-0.2s-0.2-0.2-0.2-0.4c0-2,0-3.9,0-5.8
	C85.1,60.3,84.9,60.5,84.8,60.5z M89.7,56.5c-0.1,0.4-0.2,0.7-0.4,1c-0.7,1.5-1.2,2.2-1.6,2.3c-0.2,0-0.3,0-0.4-0.1
	c-0.1-0.1-0.2-0.2-0.2-0.4c0-0.2,0-0.3,0.1-0.4c1-1.4,1.7-2.9,1.9-4.5c0-0.2,0.1-0.3,0.2-0.4c0.1-0.1,0.2-0.1,0.4-0.1
	c0.2,0,0.3,0.1,0.4,0.2c0.1,0.1,0.1,0.3,0.1,0.5c-0.1,0.3-0.1,0.5-0.2,0.8h5.2c0.2,0,0.4,0,0.6,0c0.2,0.1,0.3,0.2,0.4,0.3
	c0.2,0.3,0.2,0.8,0.1,1.4c-0.2,0.9-0.4,1.3-0.7,1.5c-0.2,0-0.3,0-0.4,0c-0.2,0-0.3-0.1-0.4-0.3c0-0.1-0.1-0.3,0-0.4
	c0.2-0.4,0.4-0.7,0.4-1c0-0.1,0-0.2,0-0.3c0-0.1-0.1-0.1-0.2-0.1h-2.3v8.4c0,0.5-0.2,0.9-0.6,1.1c-0.3,0.2-0.8,0.2-1.5,0.1
	c-0.7-0.2-1.1-0.4-1.3-0.6c0-0.1,0-0.3,0-0.4c0.1-0.2,0.2-0.2,0.3-0.3c0.2,0,0.3,0,0.5,0C90.7,65,91,65,91.2,65c0.1,0,0.2,0,0.3-0.1
	c0.1-0.1,0.1-0.2,0.1-0.4v-8H89.7z M89.6,58.4c0.1-0.1,0.2-0.1,0.4-0.1c0.2,0,0.3,0.1,0.4,0.2c0.1,0.1,0.1,0.3,0.1,0.4
	c-0.3,1.5-0.9,3.3-1.8,5.4c-0.1,0.2-0.2,0.3-0.3,0.4c-0.2,0-0.3,0-0.4,0c-0.2-0.1-0.2-0.2-0.3-0.3c0-0.2,0-0.3,0-0.5
	c0.9-2.1,1.5-3.8,1.8-5.1C89.4,58.6,89.5,58.5,89.6,58.4z M93.7,58.7c0-0.1,0.2-0.2,0.3-0.3c0.2,0,0.3,0,0.4,0
	c0.2,0.1,0.2,0.2,0.3,0.4c0.7,2.2,1.2,3.9,1.5,5.3c0,0.2,0,0.4-0.1,0.5c-0.1,0.1-0.2,0.2-0.4,0.2c-0.2,0-0.3,0-0.4-0.1
	c-0.1-0.1-0.2-0.2-0.2-0.4c-0.3-1.7-0.8-3.4-1.4-5.1C93.7,59.1,93.7,58.9,93.7,58.7z"/>
<path class="st0" d="M104.9,63H103c-0.2,0-0.3,0-0.4-0.1c-0.1-0.1-0.1-0.2-0.1-0.4c0-0.1,0-0.2,0.1-0.4c0.1-0.1,0.2-0.1,0.4-0.1h1.9
	v-1.3h-2c-0.2,0-0.3,0-0.4-0.1c-0.1-0.1-0.1-0.2-0.1-0.4c0-0.1,0-0.2,0.1-0.4c0.1-0.1,0.2-0.1,0.4-0.1h0.9l-0.2-1.5h-0.9
	c-0.2,0-0.3,0-0.4-0.1c-0.1-0.1-0.1-0.2-0.1-0.4c0-0.1,0-0.2,0.1-0.4c0.1-0.1,0.2-0.1,0.4-0.1h1.5c0-0.9,0-1.8,0-2.6
	c0-0.2,0-0.3,0.1-0.4c0.1-0.1,0.2-0.1,0.4-0.1c0.1,0,0.2,0,0.4,0.1c0.1,0.1,0.2,0.2,0.2,0.4c0,0.9,0,1.8,0,2.6h0.9
	c0-0.9,0-1.8,0-2.6c0-0.2,0-0.3,0.1-0.4c0.1-0.1,0.2-0.1,0.4-0.1c0.1,0,0.2,0,0.4,0.1c0.1,0.1,0.2,0.2,0.2,0.4c0,0.9,0,1.8,0,2.6
	h1.3c0.2,0,0.3,0,0.4,0.1c0.1,0.1,0.1,0.2,0.1,0.4c0,0.1,0,0.2-0.1,0.4c-0.1,0.1-0.2,0.2-0.4,0.2h-0.8l-0.4,1.3h1
	c0.2,0,0.3,0,0.4,0.1c0.1,0.1,0.1,0.2,0.1,0.4c0,0.1,0,0.2-0.1,0.4c-0.1,0.1-0.2,0.2-0.4,0.2h-2v1.3h1.7c0.2,0,0.3,0,0.4,0.1
	c0.1,0.1,0.1,0.2,0.1,0.4c0,0.1,0,0.2-0.1,0.4c-0.1,0.1-0.2,0.2-0.4,0.2h-1.7v1.3c0.7-0.2,1.3-0.4,1.7-0.6c0.2-0.1,0.3-0.1,0.4,0
	c0.1,0,0.2,0.2,0.3,0.3c0,0.2,0,0.3,0,0.4c0,0.1-0.2,0.2-0.3,0.3c-1.1,0.4-2.7,0.9-5.1,1.3c-0.3,0-0.6,0-0.7,0
	c-0.1-0.1-0.2-0.2-0.2-0.4c0-0.2,0-0.3,0.1-0.4c0.1-0.1,0.2-0.2,0.4-0.2c0.7-0.1,1.5-0.2,2.2-0.3L104.9,63L104.9,63z M102.1,54.9
	c0-0.1,0.1-0.2,0.2-0.3c0.1-0.1,0.2-0.1,0.4-0.1c0.2,0,0.2,0.1,0.4,0.2c0.6,0.9,0.8,1.4,0.7,1.7c-0.1,0.1-0.2,0.2-0.3,0.3
	c-0.2,0-0.3,0-0.4,0c-0.1-0.1-0.2-0.2-0.3-0.4c-0.2-0.4-0.4-0.8-0.5-1.1C102.1,55.1,102.1,55,102.1,54.9z M106,59.6l0.4-1.5h-1.9
	l0.2,1.5H106z M108.3,54.5c0.1,0,0.2,0,0.4,0c0.1,0,0.2,0.1,0.3,0.2c0,0.1,0,0.3,0,0.4c-0.1,0.4-0.4,0.8-0.7,1.3
	c-0.1,0.2-0.2,0.2-0.3,0.2c-0.1,0-0.3,0-0.4-0.1s-0.2-0.2-0.2-0.3c0-0.2,0-0.3,0.1-0.4c0.2-0.4,0.4-0.8,0.5-1
	C108.1,54.7,108.2,54.5,108.3,54.5z M109.5,57.6c-0.2,0-0.3,0-0.4-0.2c-0.1-0.1-0.1-0.2-0.1-0.4c0-0.2,0-0.3,0.1-0.4
	c0.1-0.1,0.2-0.2,0.4-0.2h2.6v-2.1c0-0.2,0-0.3,0.2-0.4c0.1-0.1,0.2-0.2,0.4-0.2s0.3,0,0.4,0.2c0.1,0.1,0.2,0.3,0.2,0.4v2.1h0.7
	c0.2,0,0.3,0,0.4,0.1c0.1,0.1,0.1,0.2,0.1,0.4c0,0.2,0,0.3-0.1,0.4c-0.1,0.1-0.2,0.2-0.4,0.2h-0.7v7.3c0,0.5-0.2,0.9-0.6,1.1
	c-0.2,0.2-0.4,0.2-0.7,0.2c-1.5,0-2.3-0.2-2.4-0.6c0-0.2,0-0.3,0-0.4c0-0.2,0.2-0.3,0.3-0.3c0.1-0.1,0.3-0.1,0.5,0
	c0.7,0.2,1.2,0.3,1.4,0.3c0.2,0,0.3,0,0.4-0.2c0.1-0.1,0.1-0.2,0.1-0.4v-7H109.5z M109.1,58.8c0-0.1,0.1-0.2,0.3-0.3
	c0.1,0,0.3,0,0.4,0c0.2,0,0.2,0.2,0.3,0.3c0,0.1,0.1,0.2,0.1,0.2c0.8,2.1,1.1,3.2,1,3.5c-0.1,0.1-0.2,0.2-0.3,0.2
	c-0.1,0-0.3,0-0.4,0c-0.1-0.1-0.2-0.2-0.2-0.4c-0.3-1.3-0.7-2.3-1-3.1C109.1,59.1,109.1,58.9,109.1,58.8z"/>
<path class="st0" d="M123.8,62c-1.7,0.9-2.8,1.3-3.2,1c-0.1-0.1-0.2-0.2-0.2-0.4c0-0.2,0-0.3,0.1-0.4c0.1-0.1,0.2-0.2,0.4-0.3
	c1.9-0.5,3.5-1.4,5-2.7c-0.1-0.2-0.2-0.3-0.4-0.5c-0.7,0.4-1.3,0.8-1.8,1c-1.7,0.8-2.7,1-3.1,0.8c-0.1-0.1-0.2-0.2-0.2-0.4
	c0-0.2,0-0.3,0.1-0.4c0.1-0.1,0.2-0.2,0.4-0.2c1.5-0.3,2.9-0.9,4.1-1.7h-2.5c-0.2,0-0.3,0-0.4-0.2c-0.1-0.1-0.1-0.2-0.1-0.4
	c0-0.2,0-0.3,0.1-0.4c0.1-0.1,0.2-0.2,0.4-0.2h7.3c0.2,0,0.3,0,0.4,0.1c0.1,0.1,0.1,0.2,0.1,0.4c0,0.2,0,0.3-0.1,0.4
	c-0.1,0.1-0.2,0.2-0.4,0.2h-3c-0.1,0.1-0.2,0.1-0.3,0.2c0.3,0.4,0.6,0.9,0.9,1.4c0.8,2.2,2.4,4,4.7,5.3c0.2,0.1,0.3,0.2,0.3,0.4
	c0,0.2,0,0.3-0.1,0.4c-0.1,0.2-0.2,0.2-0.4,0.3c-0.2,0-0.3,0-0.5-0.1c-1.3-0.7-2.4-1.8-3.5-3.3c0,0.7-0.1,1.4-0.2,2
	c-0.2,0.5-0.3,0.9-0.5,1.1c-0.2,0.2-0.5,0.4-0.7,0.4c-0.3,0.1-0.6,0.1-1,0.1c-0.4,0-0.9-0.2-1.7-0.4c-0.2-0.1-0.3-0.2-0.4-0.3
	c0-0.2,0-0.3,0-0.4c0.2-0.4,0.4-0.5,0.8-0.4c0.9,0.2,1.4,0.3,1.7,0.2c0.3,0,0.6-0.2,0.7-0.6c0.2-0.6,0.3-1.3,0.2-2.1
	c-1.1,0.8-2,1.5-2.9,1.9c-2,1-3.1,1.4-3.6,1.2c-0.1-0.1-0.2-0.2-0.2-0.4c0-0.2,0-0.3,0.1-0.4c0.1-0.2,0.2-0.2,0.4-0.3
	c2.3-0.7,4.3-1.8,6.1-3.3c0-0.2-0.1-0.4-0.2-0.7c0-0.1-0.1-0.1-0.1-0.2C125.4,61,124.5,61.6,123.8,62z M125.7,53.9
	c0.1-0.1,0.2-0.2,0.4-0.2s0.3,0,0.4,0.2c0.1,0.1,0.2,0.4,0.2,1h4.5c0.2,0,0.4,0,0.5,0.1c0.2,0.1,0.2,0.2,0.3,0.4
	c0.2,0.5,0.1,1.3-0.3,2.3c-0.1,0.2-0.2,0.3-0.3,0.3c-0.1,0-0.2,0-0.4,0c-0.3-0.2-0.4-0.4-0.3-0.8c0.2-0.6,0.3-1,0.3-1.1
	c0-0.2-0.2-0.2-0.3-0.2h-9c-0.1,0-0.2,0-0.2,0.1c-0.1,0.1-0.1,0.2-0.1,0.2v1.2c0,0.2,0,0.3-0.2,0.4c-0.1,0.1-0.2,0.1-0.4,0.1
	c-0.2,0-0.3-0.1-0.4-0.2c-0.1-0.1-0.2-0.2-0.2-0.4v-1.6c0-0.2,0.1-0.5,0.3-0.7s0.4-0.3,0.7-0.3h4.3C125.6,54.4,125.6,54,125.7,53.9z
	 M130.3,58.3c0.1,0,0.2,0,0.4,0.1c0.1,0.1,0.2,0.2,0.2,0.4c0,0.2,0,0.3-0.2,0.4c-0.4,0.5-1,1.1-1.8,1.7c-0.2,0.1-0.3,0.1-0.4,0.1
	c-0.2,0-0.3-0.1-0.4-0.2c-0.1-0.1-0.1-0.2-0.1-0.4c0-0.2,0.1-0.3,0.2-0.4c0.7-0.6,1.3-1.1,1.6-1.5C130,58.4,130.1,58.3,130.3,58.3z"
	/>
<path class="st0" d="M139.1,65.9c-0.2,0-0.4-0.1-0.5-0.2c-0.2-0.2-0.2-0.4-0.2-0.7v-8.5c0-0.2,0.1-0.4,0.2-0.5
	c0.2-0.2,0.3-0.2,0.5-0.2h0.8v0c0.4-1.2,0.7-1.8,0.7-1.8c0.1-0.1,0.2-0.1,0.4-0.1c0.2,0,0.2,0.1,0.4,0.2c0.1,0.1,0.1,0.3,0,0.5
	c0,0.2-0.1,0.4-0.2,0.7c0,0.1-0.1,0.2-0.1,0.4h1.3c0.3,0,0.5,0.1,0.7,0.2c0.2,0.2,0.2,0.3,0.2,0.5v8.4c0,0.2-0.1,0.4-0.3,0.7
	c-0.2,0.2-0.4,0.2-0.6,0.3H139.1z M142.1,60v-2.7c0-0.2,0-0.2-0.1-0.3c-0.1-0.1-0.2-0.1-0.4-0.1h-1.8c-0.2,0-0.3,0-0.3,0.1
	c-0.1,0.1-0.1,0.2-0.1,0.4V60L142.1,60L142.1,60z M139.4,61.1v3.1c0,0.1,0,0.2,0.1,0.3c0.1,0.1,0.2,0.1,0.3,0.1h1.8
	c0.2,0,0.2,0,0.3-0.1c0-0.1,0.1-0.2,0.1-0.3v-3.1H139.4z M143.9,58.7c-0.1,0-0.3,0-0.4-0.1c-0.2-0.1-0.2-0.2-0.2-0.4
	c0-0.2,0-0.3,0.1-0.4c0.7-1.1,1.1-2.2,1.1-3.4c0-0.2,0.1-0.3,0.2-0.4c0.1-0.1,0.2-0.1,0.4-0.1c0.2,0,0.3,0.1,0.4,0.2
	c0.1,0.1,0.1,0.3,0.1,0.5c0,0.3-0.1,0.6-0.2,0.8h3.2c0.2,0,0.4,0,0.7,0.1c0.2,0.1,0.3,0.2,0.4,0.4c0.1,0.2,0.1,0.5,0.1,0.7
	c0,3.7-0.2,6.2-0.4,7.3c-0.3,0.9-0.7,1.5-1.2,1.9c-0.3,0.2-0.8,0.3-1.5,0.3c-0.7,0-1.3-0.1-1.9-0.4c-0.2-0.1-0.3-0.2-0.4-0.3
	c0-0.2-0.1-0.3,0-0.4c0.1-0.3,0.4-0.4,0.8-0.4c1.3,0.4,2.2,0.4,2.5,0.1c0.3-0.2,0.5-0.5,0.6-1c0.2-0.6,0.3-2.5,0.4-5.8
	c0-0.8,0-1.3-0.1-1.3c-0.1-0.1-0.2-0.1-0.4-0.1h-3C144.8,57.9,144.3,58.6,143.9,58.7z M145,58.2c0-0.1,0.1-0.2,0.3-0.3
	c0.2,0,0.3-0.1,0.4,0c0.2,0,0.2,0.2,0.4,0.3c1.1,2.6,1.5,4.2,1.4,4.4c-0.1,0.1-0.2,0.2-0.3,0.2c-0.2,0-0.3,0-0.4,0
	c-0.1-0.1-0.2-0.2-0.3-0.4c-0.3-1.1-0.7-2.3-1.3-3.7C145,58.5,145,58.3,145,58.2z"/>
<path class="st0" d="M159.4,60.8c0,0.2,0,0.3-0.2,0.4c-0.1,0.1-0.2,0.2-0.4,0.2c-0.2,0-0.3,0-0.4-0.1c-0.1-0.1-0.2-0.2-0.2-0.4
	c0-0.9,0-1.8,0-2.7c-1,1.6-1.7,2.4-2.1,2.4c-0.2,0-0.3,0-0.4-0.2c-0.1-0.1-0.2-0.2-0.2-0.4c0-0.2,0.1-0.3,0.2-0.4
	c0.9-0.9,1.7-1.8,2.2-2.9h-1.4c-0.2,0-0.3,0-0.4-0.2c-0.1-0.1-0.1-0.2-0.1-0.4c0-0.2,0-0.3,0.1-0.4c0.1-0.1,0.2-0.2,0.4-0.2h1.6
	c0-0.4,0-0.7,0-1.1c0-0.2,0-0.3,0.1-0.4c0.1-0.1,0.2-0.1,0.4-0.1c0.2,0,0.3,0,0.4,0.1c0.1,0.1,0.2,0.2,0.2,0.4c0,0.4,0,0.7,0,1.1
	h1.5c0.2,0,0.3,0,0.4,0.1c0.1,0.1,0.1,0.2,0.1,0.4c0,0.2,0,0.3-0.1,0.4c-0.1,0.1-0.2,0.2-0.4,0.2h-1.4c0.8,0.8,1.4,1.5,1.9,2.1
	c0.1,0.1,0.1,0.2,0.1,0.4c0,0.1-0.1,0.2-0.2,0.3c-0.1,0.1-0.2,0.1-0.4,0.1c-0.2,0-0.2-0.1-0.4-0.2c-0.3-0.4-0.7-0.9-1.1-1.4
	C159.4,58.8,159.4,59.8,159.4,60.8z M157.2,61.9c0.1-0.1,0.2-0.1,0.4-0.1c0.2,0,0.3,0.1,0.4,0.2c0.2,0.4,0,1.3-0.7,2.7
	c-0.4,0.7-0.7,1.1-0.9,1.1c-0.1,0-0.3,0-0.4-0.1c-0.1-0.1-0.2-0.2-0.2-0.4c0-0.2,0-0.3,0.1-0.4c0.5-0.7,0.9-1.6,1.1-2.6
	C157,62.1,157.1,62,157.2,61.9z M159.2,61.7c0.1-0.1,0.2-0.2,0.4-0.2c0.2,0,0.3,0,0.4,0.2c0.1,0.1,0.2,0.3,0.2,0.4V64
	c0,0.2,0,0.4,0.2,0.6c0.2,0.3,0.8,0.4,2,0.4c0.8,0,1.3-0.1,1.6-0.2c0.2-0.2,0.3-0.5,0.4-1c0-0.2,0-0.3,0.1-0.4
	c0.1-0.1,0.2-0.2,0.4-0.2c0.2,0,0.3,0,0.4,0.1c0.1,0.1,0.2,0.2,0.2,0.4c-0.1,0.9-0.2,1.5-0.4,1.7c-0.5,0.5-1.4,0.7-2.8,0.7
	c-0.9,0-1.5-0.1-2-0.2c-0.3-0.1-0.6-0.2-0.7-0.4c-0.3-0.4-0.5-0.9-0.4-1.4v-2C159.1,61.9,159.1,61.8,159.2,61.7z M161.2,61.7
	c0-0.1,0.1-0.2,0.2-0.4c0.1-0.1,0.3-0.1,0.4-0.1c0.2,0,0.3,0.1,0.4,0.3c0.8,1.2,1.1,2,1,2.3c0,0.1-0.2,0.2-0.3,0.3
	c-0.2,0-0.3,0-0.4,0c-0.2-0.1-0.2-0.2-0.3-0.4c-0.3-0.7-0.6-1.2-0.9-1.6C161.2,62.1,161.2,61.9,161.2,61.7z M162.4,61.4
	c-0.2,0-0.4-0.1-0.5-0.2c-0.2-0.2-0.2-0.4-0.2-0.6V55c0-0.2,0.1-0.4,0.2-0.5c0.2-0.2,0.3-0.2,0.5-0.2h3.9c0.2,0,0.4,0.1,0.6,0.2
	c0.1,0.1,0.2,0.3,0.2,0.5v5.5c0,0.2-0.1,0.4-0.3,0.6c-0.2,0.2-0.4,0.2-0.6,0.2H162.4L162.4,61.4z M166,56.2v-0.6
	c0-0.1,0-0.2-0.1-0.3c-0.1-0.1-0.2-0.1-0.3-0.1h-2.3c-0.2,0-0.2,0-0.3,0.1c-0.1,0.1-0.1,0.2-0.1,0.3v0.6H166z M166,58.3v-1.1h-3.2
	v1.1H166z M162.8,59.3V60c0,0.2,0,0.2,0.1,0.3c0.1,0.1,0.2,0.1,0.3,0.1h2.4c0.2,0,0.2,0,0.3-0.1c0,0,0.1-0.2,0.1-0.3v-0.7
	L162.8,59.3L162.8,59.3z M165.3,62.1c0-0.2,0.1-0.3,0.2-0.4c0.1-0.1,0.3-0.1,0.4-0.1c0.2,0,0.3,0.1,0.4,0.3c0.6,0.8,1.1,1.8,1.6,3
	c0.1,0.2,0.1,0.3,0,0.5c0,0.1-0.2,0.2-0.3,0.3c-0.2,0-0.3,0-0.4,0c-0.1-0.1-0.2-0.2-0.3-0.4c-0.5-1.2-1-2.1-1.5-2.8
	C165.4,62.4,165.3,62.2,165.3,62.1z"/>
<path class="st0" d="M174.2,60.4c-0.2,0-0.3,0-0.4-0.1c-0.1-0.1-0.2-0.2-0.2-0.4c0-0.2,0-0.3,0.1-0.4c1-1.6,1.6-3.3,1.8-5.1
	c0-0.2,0.1-0.3,0.2-0.4c0.1-0.1,0.2-0.1,0.4-0.1c0.2,0,0.3,0.1,0.4,0.2c0.2,0.3,0,1.4-0.5,3.2v0c0,2.8,0,5.7,0,8.5
	c0,0.2,0,0.3-0.2,0.4c-0.1,0.1-0.2,0.2-0.4,0.2c-0.2,0-0.3,0-0.4-0.1c-0.1-0.1-0.2-0.2-0.2-0.4c0-2,0-4.1,0-6.1
	C174.6,60.2,174.4,60.4,174.2,60.4z M182.5,65c-0.2,0.7-0.5,1.1-1,1.2c-0.5,0.2-1.2,0.1-2.1-0.2c-0.2,0-0.2-0.1-0.3-0.3
	c0-0.1,0-0.2,0-0.4c0.1-0.4,0.3-0.4,0.7-0.3c0.7,0.2,1.1,0.2,1.3,0.1c0.2,0,0.4-0.2,0.4-0.4c0.1-0.4,0.2-0.7,0.2-1.1
	c-0.9,0.6-1.6,1-2.3,1.3c-1.5,0.7-2.5,0.9-2.9,0.7c-0.1-0.1-0.2-0.2-0.2-0.3c0-0.2,0-0.3,0.1-0.4c0.1-0.1,0.2-0.2,0.4-0.2
	c1.8-0.4,3.4-1.1,4.8-2.2c0-0.2-0.1-0.4-0.2-0.7c-0.9,0.6-1.6,1.1-2.2,1.3c-1.3,0.6-2.2,0.8-2.5,0.6c-0.1-0.1-0.2-0.2-0.2-0.3
	c0-0.2,0-0.3,0.1-0.4c0.1-0.1,0.2-0.2,0.4-0.2c1.5-0.3,2.8-0.9,4-1.8c-0.1-0.1-0.2-0.2-0.3-0.4c-1.3,0.7-2.5,1.1-3.5,1.3
	c-0.2,0-0.3,0-0.4-0.1c-0.1-0.1-0.2-0.2-0.2-0.3c0-0.2,0-0.3,0.1-0.4c0.1-0.1,0.2-0.2,0.4-0.2c1.3-0.2,2.5-0.7,3.6-1.3h-2.8
	c-0.2,0-0.4-0.1-0.5-0.2c-0.1-0.2-0.2-0.4-0.2-0.6v-1.6c-0.2,0-0.3,0-0.4,0c-0.1-0.1-0.2-0.2-0.3-0.3c0-0.2-0.1-0.3,0-0.4
	c0-0.1,0.2-0.2,0.3-0.3c0.7-0.3,1.3-0.7,1.8-1.2c0.3-0.4,0.7-0.6,1-0.6h3.6c0.2,0,0.4,0,0.4,0.1c0.1,0.1,0.2,0.2,0.2,0.3
	c0,0.1,0,0.2,0,0.4c-0.1,0.3-0.4,0.7-1,1.3h1.9c0.2,0,0.4,0.1,0.6,0.2c0.1,0.1,0.2,0.3,0.2,0.5v1.6c0,0.2-0.1,0.4-0.2,0.6
	c-0.2,0.2-0.3,0.2-0.5,0.2h-2.4c-0.3,0.2-0.6,0.4-0.8,0.5c0.4,0.4,0.6,0.8,0.8,1.1c0,0,0.1,0.1,0.2,0.2c0.7,1.5,1.7,2.6,3.2,3.5
	c0.2,0.1,0.3,0.2,0.3,0.4c0,0.2,0,0.3-0.1,0.4c-0.1,0.1-0.2,0.2-0.4,0.2c-0.2,0-0.3,0-0.4-0.1c-0.9-0.6-1.7-1.3-2.4-2.3
	C182.7,64.1,182.6,64.6,182.5,65z M180.7,57.3h-2.2c-0.2,0-0.2,0-0.3,0.1c-0.1,0.1-0.1,0.2-0.1,0.3v0.5c0,0.1,0,0.2,0.1,0.3
	c0.1,0.1,0.2,0.1,0.3,0.1h2.2V57.3z M181.2,56.4c0.4-0.2,0.8-0.4,0.9-0.6c0.2-0.2,0.2-0.3,0.2-0.3c0,0,0-0.1,0-0.1c0,0-0.1,0-0.2,0
	h-2.4c-0.2,0-0.4,0-0.6,0.2c-0.3,0.3-0.6,0.6-1,0.9c0,0,0,0,0,0h0.2H181.2z M181.8,58.6h2.3c0.1,0,0.2,0,0.3-0.1
	c0,0,0.1-0.2,0.1-0.3v-0.5c0-0.1,0-0.2-0.1-0.3c-0.1-0.1-0.2-0.1-0.3-0.1h-2.3L181.8,58.6L181.8,58.6z M185,59.9
	c0.1,0,0.2,0,0.4,0.1c0.1,0.1,0.2,0.2,0.2,0.3c0,0.1,0,0.3-0.1,0.4c-0.4,0.5-0.9,1-1.5,1.5c-0.1,0.1-0.3,0.2-0.4,0.2
	c-0.1,0-0.2-0.1-0.4-0.2c-0.1-0.1-0.1-0.2-0.1-0.4c0-0.2,0.1-0.3,0.2-0.4c0.6-0.5,1-0.9,1.3-1.3C184.7,60,184.8,59.9,185,59.9z"/>
</svg>
