<?xml version="1.0" encoding="utf-8"?>
<!-- Generator: Adobe Illustrator 27.8.1, SVG Export Plug-In . SVG Version: 6.00 Build 0)  -->
<svg version="1.1" id="圖層_1" xmlns="http://www.w3.org/2000/svg" xmlns:xlink="http://www.w3.org/1999/xlink" x="0px" y="0px"
	 viewBox="0 0 25.9 16.7" style="enable-background:new 0 0 25.9 16.7;" xml:space="preserve">
<style type="text/css">
	.st0{fill-rule:evenodd;clip-rule:evenodd;fill:#A78667;}
</style>
<path class="st0" d="M6.5,0H3.9C1.8,0,0,1.8,0,3.9v5.6c0,0.4,0.3,0.7,0.7,0.7h1.5c0.8,0,1.5-0.6,1.5-1.5V5.2c0-0.3,0.3-0.6,0.6-0.6
	H5c0.3,0,0.6,0.3,0.6,0.6v3.5c0,1.9-1.5,3.3-3.3,3.3H0.7C0.3,12,0,12.4,0,12.7v3.1c0,0.5,0.4,0.9,0.9,0.9h2.6c2.2,0,3.9-1.8,3.9-3.9
	V0.9C7.4,0.4,7,0,6.5,0z M15.8,0h-2.6C11,0,9.3,1.8,9.3,3.9v1.4c0,0.2,0.2,0.3,0.4,0.2c0.6-0.6,1.5-0.8,2.4-0.8h2.1
	c0.4,0,0.6,0.3,0.6,0.6v0.6c0,0.4-0.3,0.6-0.6,0.6h-2c-1,0-1.9,0.7-1.9,1.7c-0.1,1.1,0.7,2,1.8,2h2.1c0.4,0,0.6,0.3,0.6,0.6v0.6
	c0,0.4-0.3,0.6-0.6,0.6H12c-0.9,0-1.7-0.3-2.4-0.8c-0.2-0.1-0.4,0-0.4,0.2v4.4c0,0.5,0.4,0.9,0.9,0.9h2.6c2.2,0,3.9-1.8,3.9-3.9V0.9
	C16.7,0.4,16.2,0,15.8,0z M22.5,0H25c0.5,0,0.9,0.4,0.9,0.9v11.8c0,2.1-1.7,3.9-3.9,3.9h-2.6c-0.5,0-0.9-0.4-0.9-0.9v-3.2
	c0-0.3,0.2-0.5,0.5-0.5h2.6c1.2,0,2.2-0.8,2.4-2c0-0.6-0.1-1.1-0.4-1.6c0-0.1,0-0.2,0-0.3c0.3-0.5,0.5-1,0.4-1.6
	c-0.2-1.2-1.2-2-2.4-2H19c-0.3,0-0.5-0.2-0.5-0.5V3.9C18.6,1.8,20.3,0,22.5,0z M21.8,9.3H19c-0.3,0-0.5,0.2-0.5,0.5s0.2,0.5,0.5,0.5
	h2.8c0.3,0,0.5-0.2,0.5-0.5C22.2,9.4,22,9.3,21.8,9.3z M19,6.5h2.8c0.3,0,0.5,0.2,0.5,0.5s-0.2,0.5-0.5,0.5H19
	c-0.3,0-0.5-0.2-0.5-0.5S18.7,6.5,19,6.5z"/>
</svg>
