<svg width="68" height="41" viewBox="0 0 68 41" fill="none" xmlns="http://www.w3.org/2000/svg">
<path fill-rule="evenodd" clip-rule="evenodd" d="M33.9316 5.22817C37.6257 1.92616 42.4145 0 47.6137 0C58.833 0 68 9.21816 68 20.5C68 31.7819 58.833 41 47.6137 41C42.2776 41 37.4889 39.0738 33.9316 35.7718C30.3742 39.0738 25.5855 41 20.3863 41C9.16703 41 0 31.7819 0 20.5C0 9.21816 9.16703 0 20.3863 0C25.5855 0 30.3742 1.92616 33.9316 5.22817ZM6.97783 26.0034L9.85112 18.0235L8.6197 26.0034H10.8089L12.5875 15.547H9.16702L6.97783 22.0134L6.84104 15.547H3.69418L1.91553 26.0034H3.96784L5.33605 18.0235L5.47284 26.0034H6.97783ZM16.0081 25.1778V26.0034C16.0081 26.0034 17.5131 26.0033 17.7867 25.8658C17.9235 25.1778 18.334 22.5638 18.4708 21.3255C18.6076 20.6378 18.6076 20.0875 18.6076 19.6748C18.6076 18.0238 17.6499 17.198 15.7344 17.198C14.9135 17.198 14.2293 17.3356 13.1348 17.6107C13.1348 17.6107 12.8612 19.3994 12.8612 19.5369C13.2717 19.3994 14.0925 19.1242 15.1871 19.1242C16.1448 19.1242 16.5553 19.3993 16.5553 19.9497C16.5553 20.0872 16.5553 20.2249 16.4185 20.5H15.4607C12.998 20.5 11.6298 21.7382 11.6298 23.802C11.6298 25.1778 12.4507 26.141 13.6821 26.141C14.6398 26.141 15.4608 25.8658 16.0081 25.1778ZM24.0804 23.2517C24.0804 22.151 23.67 21.4631 22.5754 20.9128C21.6177 20.5 21.4808 20.3625 21.344 19.8121C21.344 19.3994 21.7546 19.1242 22.4387 19.1242C22.9858 19.1242 23.5333 19.1242 24.0804 19.2618L24.3541 17.3355C24.0805 17.3355 23.7384 17.3012 23.3964 17.2668C23.0543 17.2324 22.7123 17.198 22.4387 17.198C19.9759 17.198 19.1549 18.5738 19.1549 20.0872C19.1549 21.1879 19.5654 21.8758 20.7968 22.4262C21.7545 22.8389 21.8913 22.9765 21.8913 23.3893C21.8913 23.9396 21.4808 24.2147 20.6599 24.2147C19.976 24.2147 19.2915 24.2147 18.6076 23.9396C18.6076 23.9396 18.334 25.7282 18.334 25.8658C18.38 25.8773 18.425 25.8889 18.4697 25.9004C18.957 26.0255 19.4066 26.141 20.6599 26.141C22.9859 26.141 24.0804 25.1779 24.0804 23.2517ZM27.3642 24.0772C26.9537 24.0772 26.6801 23.802 26.4064 23.3893C26.4064 23.242 26.524 22.6219 26.6752 21.8241C26.8066 21.1312 26.9633 20.3044 27.0905 19.5369H28.1851L28.4587 17.4732H27.3642L27.6378 16.2349H25.4487L24.491 22.0134C24.3542 22.8389 24.2173 23.802 24.2173 24.2147C24.2173 25.453 24.9014 26.141 25.996 26.141C26.5432 26.141 27.0904 26.0034 27.6377 25.8658L27.9115 23.9396C27.7747 24.0772 27.6377 24.0772 27.3642 24.0772ZM34.8893 23.6645C34.0684 24.0772 33.3843 24.2147 32.5634 24.2147C31.332 24.2147 30.5111 23.6645 30.6479 22.2886H35.0261C35.0582 22.095 35.0903 21.9166 35.1206 21.748C35.2196 21.1974 35.2998 20.7515 35.2998 20.2249C35.2998 18.4363 34.0684 17.198 32.2897 17.198C30.1006 17.198 28.4587 19.3994 28.4587 22.2886C28.4587 24.7651 29.6901 26.0034 32.1529 26.0034C32.9738 26.0034 33.658 26.0034 34.4789 25.7282L34.8893 23.6645ZM35.2998 26.0034H37.489L37.5141 25.8434C38.3128 20.7555 38.4607 19.8135 39.8148 19.9497C39.9517 18.849 40.3622 17.8859 40.6358 17.4732C39.6781 17.3356 39.1307 17.8859 38.4466 18.849C38.4466 18.6426 38.4809 18.4363 38.5151 18.2299C38.5493 18.0235 38.5835 17.8171 38.5835 17.6107H36.5312C36.2576 20.2248 35.8471 22.8389 35.4366 25.453L35.2998 26.0034ZM44.0563 26.141C44.6036 26.141 45.1509 26.1409 45.9718 25.8658L46.5191 23.2517C45.6982 23.6645 45.1509 23.802 44.6036 23.802C43.3722 23.802 42.5513 22.8389 42.5513 21.3255C42.5513 19.1242 43.7827 17.4732 45.4246 17.4732C45.9718 17.4732 46.5191 17.6107 47.34 18.0235L47.7505 15.8222C47.7105 15.8088 47.6641 15.7927 47.6119 15.7747C47.1281 15.6081 46.1521 15.2718 45.2877 15.2718C42.2776 15.2718 40.2254 17.8859 40.2254 21.6007C40.2254 24.3524 41.7304 26.141 44.0563 26.141ZM51.0342 26.0034H52.8128C52.8128 25.3155 53.2233 22.7014 53.4969 21.3255C53.6338 20.6376 53.6338 20.0872 53.6338 19.6745C53.6338 18.0235 52.676 17.198 50.7605 17.198C49.9396 17.198 49.2555 17.3356 48.161 17.6107C48.161 17.6107 47.8873 19.3994 47.8873 19.5369C48.2978 19.3994 49.1187 19.1242 50.2133 19.1242C51.171 19.1242 51.5815 19.3993 51.5815 19.9497C51.5815 20.0873 51.5814 20.2249 51.4446 20.5H50.4869C48.0242 20.5 46.6559 21.7382 46.6559 23.802C46.6559 25.1778 47.4768 26.141 48.7082 26.141C49.666 26.141 50.4869 25.8658 51.0342 25.1778V26.0034ZM53.6338 26.0034H55.8229C56.507 20.7752 56.7807 19.8121 58.1489 19.9497C58.2857 18.849 58.6961 17.8859 58.9698 17.4732C58.012 17.3356 57.4648 17.8859 56.7807 18.849C56.7807 18.6426 56.8149 18.4363 56.8491 18.2299C56.8833 18.0235 56.9175 17.8171 56.9175 17.6107H54.8651C54.5915 20.2248 54.1811 22.8389 53.7706 25.453L53.6338 26.0034ZM62.4131 25.8658L62.5272 25.1778C61.9799 25.8658 61.2958 26.141 60.4748 26.141C58.833 26.141 57.7384 24.7651 57.7384 22.5638C57.7384 19.8121 59.3803 17.3355 61.2957 17.3355C62.1167 17.3355 62.8008 17.7484 63.3481 18.4363L63.8954 15.4094H66.0845L64.4426 25.8658H62.4131ZM30.7846 20.7752C30.9215 19.8121 31.4687 19.2618 32.1528 19.2618C33.3667 19.2618 33.2882 20.2363 33.2551 20.6484C33.2509 20.7008 33.2474 20.7441 33.2474 20.7752H30.7846ZM13.8189 23.3894C13.8189 23.9397 14.0926 24.2149 14.6398 24.2149C15.5976 24.2149 16.1449 23.3894 16.2817 22.1511H15.7344C14.503 22.1511 13.8189 22.5639 13.8189 23.3894ZM48.8451 23.3894C48.8451 23.9397 49.1187 24.2149 49.666 24.2149C50.6238 24.2149 51.1711 23.3894 51.3079 22.1511H50.7606C49.3924 22.1511 48.8451 22.5639 48.8451 23.3894ZM61.8431 19.5371C60.8853 19.5371 60.0644 20.7753 60.0644 22.4263C60.0644 23.527 60.4749 24.0773 61.159 24.0773C62.2536 24.0773 62.9376 22.8391 62.9376 21.1881C63.0745 20.0874 62.664 19.5371 61.8431 19.5371Z" fill="#A78667"/>
</svg>
