<?xml version="1.0" encoding="utf-8"?>
<!-- Generator: Adobe Illustrator 27.8.1, SVG Export Plug-In . SVG Version: 6.00 Build 0)  -->
<svg version="1.1" id="圖層_1" xmlns="http://www.w3.org/2000/svg" xmlns:xlink="http://www.w3.org/1999/xlink" x="0px" y="0px"
	 viewBox="0 0 27.8 16.7" style="enable-background:new 0 0 27.8 16.7;" xml:space="preserve">
<style type="text/css">
	.st0{fill-rule:evenodd;clip-rule:evenodd;fill:#666666;}
</style>
<path class="st0" d="M13.9,2.1C15.4,0.8,17.3,0,19.5,0c4.6,0,8.3,3.7,8.3,8.3c0,4.6-3.7,8.3-8.3,8.3c-2.2,0-4.1-0.8-5.6-2.1
	c-1.5,1.3-3.4,2.1-5.5,2.1C3.7,16.7,0,12.9,0,8.3C0,3.7,3.7,0,8.3,0C10.5,0,12.4,0.8,13.9,2.1z M2.9,10.6L4,7.3l-0.5,3.2h0.9
	l0.7-4.3H3.7L2.9,8.9L2.8,6.3H1.5l-0.7,4.3h0.8l0.6-3.2l0.1,3.2H2.9z M6.5,10.2v0.3c0,0,0.6,0,0.7-0.1c0.1-0.3,0.2-1.3,0.3-1.8
	C7.6,8.4,7.6,8.2,7.6,8v0c0-0.7-0.4-1-1.2-1C6.1,7,5.8,7,5.4,7.2c0,0-0.1,0.7-0.1,0.8l0,0c0.2-0.1,0.5-0.2,1-0.2
	c0.4,0,0.6,0.1,0.6,0.3l0,0c0,0.1,0,0.1-0.1,0.2H6.3c-1,0-1.6,0.5-1.6,1.3c0,0.6,0.3,1,0.8,1C6,10.6,6.3,10.5,6.5,10.2z M9.8,9.5
	c0-0.4-0.2-0.7-0.6-1C8.8,8.3,8.8,8.3,8.7,8.1c0-0.2,0.2-0.3,0.4-0.3h0c0.2,0,0.4,0,0.7,0.1L10,7C9.8,7,9.7,7,9.6,7
	C9.4,7,9.3,7,9.2,7c-1,0-1.3,0.6-1.3,1.2c0,0.4,0.2,0.7,0.7,1c0.4,0.2,0.4,0.2,0.4,0.4c0,0.2-0.2,0.3-0.5,0.3h0
	c-0.3,0-0.6,0-0.8-0.1c0,0-0.1,0.7-0.1,0.8c0,0,0,0,0.1,0c0.2,0.1,0.4,0.1,0.9,0.1C9.4,10.6,9.8,10.2,9.8,9.5z M11.2,9.8L11.2,9.8
	c-0.2,0-0.3-0.1-0.4-0.3c0-0.1,0-0.3,0.1-0.6C11,8.6,11,8.3,11.1,7.9h0.4l0.1-0.8h-0.4l0.1-0.5h-0.9L10,8.9C10,9.3,9.9,9.7,9.9,9.8
	c0,0.5,0.3,0.8,0.7,0.8c0.2,0,0.4-0.1,0.7-0.1h0l0.1-0.8C11.4,9.8,11.3,9.8,11.2,9.8z M14.3,9.6c-0.3,0.2-0.6,0.2-1,0.2
	c-0.5,0-0.8-0.2-0.8-0.8h1.8c0-0.1,0-0.2,0-0.2c0-0.2,0.1-0.4,0.1-0.6c0-0.7-0.5-1.2-1.2-1.2c-0.9,0-1.6,0.9-1.6,2.1
	c0,1,0.5,1.5,1.5,1.5c0.3,0,0.6,0,1-0.1L14.3,9.6z M14.4,10.6h0.9l0-0.1c0.3-2.1,0.4-2.5,0.9-2.4c0.1-0.4,0.2-0.8,0.3-1
	C16.2,7,16,7.3,15.7,7.7c0-0.1,0-0.2,0-0.3c0-0.1,0-0.2,0-0.3h-0.8c-0.1,1.1-0.3,2.1-0.4,3.2L14.4,10.6z M18,10.6
	c0.2,0,0.4,0,0.8-0.1L19,9.5c-0.3,0.2-0.6,0.2-0.8,0.2c-0.5,0-0.8-0.4-0.8-1c0-0.9,0.5-1.6,1.2-1.6c0.2,0,0.4,0.1,0.8,0.2l0.2-0.9
	c0,0,0,0-0.1,0c-0.2-0.1-0.6-0.2-1-0.2c-1.2,0-2.1,1.1-2.1,2.6C16.4,9.9,17.1,10.6,18,10.6z M20.9,10.6h0.7c0-0.3,0.2-1.3,0.3-1.9
	c0.1-0.3,0.1-0.5,0.1-0.7c0-0.7-0.4-1-1.2-1c-0.3,0-0.6,0.1-1.1,0.2c0,0-0.1,0.7-0.1,0.8c0.2-0.1,0.5-0.2,1-0.2
	c0.4,0,0.6,0.1,0.6,0.3c0,0.1,0,0.1-0.1,0.2h-0.4c-1,0-1.6,0.5-1.6,1.3c0,0.6,0.3,1,0.8,1c0.4,0,0.7-0.1,1-0.4V10.6z M21.9,10.6h0.9
	c0.3-2.1,0.4-2.5,1-2.5c0.1-0.4,0.2-0.8,0.3-1c-0.4-0.1-0.6,0.2-0.9,0.6c0-0.1,0-0.2,0-0.3c0-0.1,0-0.2,0-0.3h-0.8
	c-0.1,1.1-0.3,2.1-0.4,3.2L21.9,10.6z M25.5,10.5l0-0.3c-0.2,0.3-0.5,0.4-0.8,0.4c-0.7,0-1.1-0.6-1.1-1.5c0-1.1,0.7-2.1,1.5-2.1
	c0.3,0,0.6,0.2,0.8,0.4l0.2-1.2H27l-0.7,4.3H25.5z M12.6,8.4c0.1-0.4,0.3-0.6,0.6-0.6c0.5,0,0.5,0.4,0.5,0.6c0,0,0,0,0,0.1H12.6z
	 M5.6,9.5c0,0.2,0.1,0.3,0.3,0.3c0.4,0,0.6-0.3,0.7-0.8H6.4C5.9,9,5.6,9.2,5.6,9.5z M20,9.5c0,0.2,0.1,0.3,0.3,0.3
	c0.4,0,0.6-0.3,0.7-0.8h-0.2C20.2,9,20,9.2,20,9.5z M25.3,7.9c-0.4,0-0.7,0.5-0.7,1.2c0,0.4,0.2,0.7,0.4,0.7c0.4,0,0.7-0.5,0.7-1.2
	C25.8,8.2,25.6,7.9,25.3,7.9z"/>
</svg>
