<?xml version="1.0" encoding="utf-8"?>
<!-- Generator: Adobe Illustrator 27.8.1, SVG Export Plug-In . SVG Version: 6.00 Build 0)  -->
<svg version="1.1" id="圖層_1" xmlns:v="https://vecta.io/nano"
	 xmlns="http://www.w3.org/2000/svg" xmlns:xlink="http://www.w3.org/1999/xlink" x="0px" y="0px" viewBox="0 0 906.5 244.1"
	 style="enable-background:new 0 0 906.5 244.1;" xml:space="preserve">
<style type="text/css">
	.st0{fill:#666666;}
</style>
<g>
	<path class="st0" d="M35.8,0c-2.6,0-4.9,1.9-5.3,4.5L0.1,197.9c-0.4,2.7,1.4,5.2,4.1,5.7c0.3,0,0.5,0.1,0.8,0.1h36.2
		c2.6,0,4.9-1.9,5.3-4.5l9-56.8c0.4-2.6,2.6-4.5,5.3-4.5h32.9c38.4,0,71-28,77-66c6-38.3-23.9-71.7-66.3-71.8H35.8z M71,43.2h26.3
		c21.7,0,28.7,12.8,26.5,26.9c-2.2,14.2-13.2,24.6-34.1,24.6H62.9L71,43.2z M244,56.3c-9.1,0-19.6,1.9-31.4,6.8
		c-27.1,11.3-40.1,34.6-45.6,51.6c0,0-17.6,51.8,22.1,80.3c0,0,36.8,27.4,78.2-1.7l-0.7,4.5c-0.4,2.7,1.4,5.2,4.1,5.7
		c0.3,0,0.5,0.1,0.8,0.1h34.3c2.6,0,4.9-1.9,5.3-4.5l20.9-132.4c0.4-2.7-1.4-5.2-4.1-5.7c-0.3,0-0.5-0.1-0.8-0.1h-34.3
		c-2.6,0-4.9,1.9-5.3,4.5l-1.1,7.1C286.4,72.6,271.4,56.2,244,56.3L244,56.3z M245.2,98.1c3.9,0,7.5,0.5,10.8,1.6
		c14.8,4.8,23.2,19,20.8,34.4c-3,19-18.6,33-38.5,33c-3.9,0-7.5-0.5-10.8-1.6c-14.8-4.8-23.3-19-20.8-34.4
		C209.6,112.1,225.2,98.1,245.2,98.1L245.2,98.1z"/>
	<path class="st0" d="M530.2,0c-2.6,0-4.9,1.9-5.3,4.5l-30.5,193.4c-0.4,2.7,1.4,5.2,4.1,5.7c0.3,0,0.5,0.1,0.8,0.1h36.2
		c2.6,0,4.9-1.9,5.3-4.5l9-56.8c0.4-2.6,2.6-4.5,5.3-4.5h32.9c38.4,0,71-28,77-66c6-38.3-23.9-71.7-66.3-71.8H530.2z M565.4,43.2
		h26.3c21.7,0,28.7,12.8,26.5,26.9C615.9,84.2,605,94.7,584,94.7h-26.8L565.4,43.2z M738.4,56.3c-9.1,0-19.6,1.9-31.4,6.8
		c-27.1,11.3-40.1,34.6-45.6,51.6c0,0-17.6,51.8,22.1,80.3c0,0,36.8,27.4,78.2-1.7l-0.7,4.5c-0.4,2.7,1.4,5.2,4.1,5.7
		c0.3,0,0.5,0.1,0.8,0.1h34.3c2.6,0,4.9-1.9,5.3-4.5l20.9-132.4c0.4-2.7-1.4-5.2-4.1-5.7c-0.3,0-0.5-0.1-0.8-0.1h-34.3
		c-2.6,0-4.9,1.9-5.3,4.5l-1.1,7.1C780.8,72.6,765.8,56.2,738.4,56.3L738.4,56.3z M739.5,98.1c3.9,0,7.5,0.5,10.8,1.6
		c14.8,4.8,23.2,19,20.8,34.4c-3,19-18.6,33-38.5,33c-3.9,0-7.5-0.5-10.8-1.6c-14.8-4.8-23.3-19-20.8-34.4
		C703.9,112.1,719.6,98.1,739.5,98.1L739.5,98.1z"/>
	<path class="st0" d="M348.3,60.9c-2.7,0-4.7,2.7-3.8,5.2L382.2,183l-34,55c-1.7,2.7,0.3,6.1,3.4,6.1h40.2c2.3,0,4.5-1.2,5.7-3.2
		L502.6,67c1.6-2.7-0.3-6.1-3.4-6.1h-40.2c-2.4,0-4.5,1.3-5.8,3.3l-41.4,69.9l-21-69.3c-0.7-2.3-2.8-3.8-5.1-3.8L348.3,60.9z"/>
	<path class="st0" d="M865.4,0c-2.6,0-4.9,1.9-5.3,4.5l-30.5,193.4c-0.4,2.7,1.4,5.2,4.1,5.7c0.3,0,0.5,0.1,0.8,0.1h36.2
		c2.6,0,4.9-1.9,5.3-4.5L906.5,5.7c0.4-2.7-1.4-5.2-4.1-5.7c-0.3,0-0.5-0.1-0.8-0.1L865.4,0z"/>
</g>
</svg>
