<?xml version="1.0" encoding="utf-8"?>
<!-- Generator: Adobe Illustrator 27.8.1, SVG Export Plug-In . SVG Version: 6.00 Build 0)  -->
<svg version="1.1" id="圖層_1" xmlns="http://www.w3.org/2000/svg" xmlns:xlink="http://www.w3.org/1999/xlink" x="0px" y="0px"
	 viewBox="0 0 256 160" style="enable-background:new 0 0 256 160;" xml:space="preserve">
<style type="text/css">
	.st0{fill:#666666;}
</style>
<g>
	<path class="st0" d="M152,97.1l0.8-2.8h-11.7l-1.7,5.7c0,0,2.3-2.1,6.2-2.8C146.4,97,152,97.1,152,97.1z"/>
	<path class="st0" d="M113.2,74.5c0.9,0,1.7-0.6,2.4-1.6c1-1.3,1.7-4.4,1.9-5.2c0.9-3.7,0.7-6.1-1.3-6.1c-2.5,0-3.5,3.1-4.4,6.9
		c-0.3,1.3-0.5,2.5-0.5,3.7C111.4,74.5,113,74.5,113.2,74.5z"/>
	<path class="st0" d="M149.7,104.4l0.7-2.3h-11.6l-0.7,2.3h10.1C149.3,104.3,149.6,104.4,149.7,104.4z"/>
	<polygon class="st0" points="168.3,119.9 174.3,119.9 176,114.1 170,114.1 	"/>
	<path class="st0" d="M174.7,58.4c2.1-1,3.8-3.2,4.4-5.7c0.6-2.8-0.3-4.9-2.4-5.8c-0.1,0-5.6-0.5-5.6-0.5l-1.1-0.1l0,0.4l-0.1,0.6
		c0,0-2.6,11.4-2.6,11.4l-0.1,0.6h1.4C170.8,59.4,173,59.3,174.7,58.4z"/>
	<path class="st0" d="M193.5,74.8c0.9,0,2.5-0.6,3.1-1.5c0.3-0.5,0.7-1.2,0.9-1.9c0.3-1.1,0.5-2.2,0.8-3.3c0.2-0.8,0.3-1.4,0.5-2.1
		c0.2-2.5-0.7-4-2.3-4c-2.5,0-3.5,3.1-4.4,6.8c-0.3,1.3-0.5,2.5-0.5,3.7C191.7,74.8,193.2,74.8,193.5,74.8z"/>
	<path class="st0" d="M242.7,0h-60.9h-2.9h-65.1h-5.3H50c-8.9,0-17.8,7.3-19.9,16.2L0.4,143.7c-2.1,8.9,3.5,16.2,12.4,16.2h58.5h5.3
		h65.1h2.9h60.9c8.9,0,17.8-7.3,19.9-16.2l29.7-127.5C257.2,7.3,251.6,0,242.7,0z M197.2,57.1c1.3,0.5,2.2,1.3,2.8,2.3
		c0-0.3,0.1-0.6,0.1-0.9l0.3-0.2c3.8-0.5,4.9-0.7,8.9-1.4l0.1,0.3c-0.7,3-1.5,6.1-2.2,9.1c-1.5,6.4-2,9.6-2.6,12.9l-0.4,0.3
		c-3.9,0-5,0-8.6,0.1l-0.2-0.3c0.1-0.5,0.2-0.9,0.4-1.4c-1.3,1.1-2.7,1.9-4.2,1.9c-1.4,0.1-2.9-0.1-4.5-0.8c-5-1.9-4.2-7.4-3.5-10.3
		c0.7-3,1.8-6,4.3-8.3C191.4,57.3,195.5,56.4,197.2,57.1z M159.3,53.6c0,0,2.5-11.5,2.5-11.5s0.2-0.9,0.3-1.4
		c1.1,0.1,3.9,0.2,10.9,0.1c0,0,2.7,0,2.7,0c5.4,0,10.1,0.1,12.5,3.4c0.9,1.2,1.3,2.8,1.3,4.4c0,1.2-0.2,2.4-0.4,3.5
		c-1,4.2-3.1,7.6-6.3,10c-4.6,3.4-10.5,3.4-15.7,3.4h-0.6c-0.4,0.2-0.8,0.7-0.8,0.7c-0.1,0.2-1.3,5.2-1.3,5.2c0,0-1.4,6.8-1.7,8
		c-1-0.1-3.5-0.1-9.6,0C153.4,78,159.3,53.6,159.3,53.6z M128.5,71.1c1.6-7,2-9.7,2.4-13.3l0.3-0.2c3.7-0.5,4.6-0.6,8.6-1.4l0.3,0.4
		l-0.6,2.2c0.7-0.4,1.3-0.8,2-1.2c1.9-0.9,4-1.2,5.2-1.2c1.7,0,3.7,0.5,4.5,2.5c0.7,1.8,0.2,4-0.8,8.4l-0.5,2.2
		c-1.1,4.9-1.2,5.8-1.8,9.1l-0.4,0.3c-3.2-0.1-4.3-0.1-8.1,0.1l-0.1-0.3c0.3-1.4,0.7-2.8,1-4.3l0.4-2c0.7-3,1.4-6.6,1.4-7.6
		c0.1-0.6,0.3-2.3-1.5-2.3c-0.8,0-1.6,0.4-2.4,0.8c-0.4,1.6-1.4,6.2-1.8,8.2c-0.9,4.4-1,4.9-1.4,7l-0.3,0.3
		c-3.3-0.1-4.4-0.1-8.2,0.1l-0.2-0.3C127.3,76.3,127.9,73.7,128.5,71.1z M131.7,91.6l-1.5,5.1h-11.4l-1.2,1.1
		c-0.5,0.5-0.7,0.3-1.4,0.7c-0.6,0.3-2,1-3.7,1h-3.7l1.5-4.9h1.1c0.9,0,1.6-0.1,1.9-0.3c0.4-0.2,0.8-0.8,1.2-1.6l2.1-3.8h8.3
		l-1.5,2.8H131.7z M60.5,65.1c-1.2,4.1-2.4,8.6-7.4,11.5c-2.8,1.7-7.1,2.7-11.6,2.7c-3.5,0-9.7-0.6-11.8-4.3c-0.7-1.2-1-2.6-1-4.3
		l0.8-5.8l0.4-1.8l4.7-21c0,0,0.2-1.2,0.3-1.4c0.1,0.1,1.7,0.2,10.8,0.1c0,0.1,0,0.1-0.1,0.3c-0.8,2.5-5.5,21.1-5.5,21.1
		c0,0-0.9,5.6-0.9,5.6l0.1,0.9c0.3,2.7,2,4.2,4.9,4.2c1.8,0,3.4-0.5,4.7-1.6c2.4-1.9,3-4.8,4-9c0,0,4.4-20.4,4.7-21.6
		c0.6,0.1,2.6,0.2,9.1,0.1c0,0.1-0.1,0.1-0.1,0.3C65.8,43.6,61,63,61,63L60.5,65.1z M86.7,67.4l-0.5,2.2c-1,4.9-1.2,5.8-1.8,9.1
		l-0.4,0.3C80.9,79,79.7,79,76,79.2L75.8,79c0.3-1.4,0.7-2.8,1-4.3l0.5-2c0.7-3,1.4-6.6,1.4-7.6c0.1-0.6,0.3-2.3-1.6-2.3
		c-0.8,0-1.6,0.4-2.4,0.8c-0.4,1.6-1.4,6.2-1.8,8.2c-0.9,4.4-1,4.9-1.4,7l-0.3,0.3C68,79,66.8,79,63,79.2l-0.2-0.3
		c0.6-2.6,1.3-5.2,1.9-7.8c1.6-7,2-9.7,2.4-13.3l0.3-0.2c3.7-0.5,4.6-0.6,8.6-1.4l0.3,0.4l-0.6,2.2c0.7-0.4,1.3-0.8,2-1.2
		c1.9-0.9,4-1.2,5.2-1.2c1.8,0,3.7,0.5,4.5,2.5C88.2,60.8,87.7,63,86.7,67.4z M100.2,66c-0.4,1.5-0.7,3.1-1.1,4.6
		c-0.7,3.2-1,4.4-1.2,5.3c-0.2,0.8-0.2,1.3-0.5,2.9L97.3,79l-0.2,0.1c-1.9,0-3.2-0.1-4.4,0c-1.2,0-2.4,0.1-4.2,0.2l-0.1-0.2
		l-0.1-0.2c0.5-1.9,0.8-2.5,1-3.2c0.2-0.7,0.5-1.3,0.9-3.2c0.6-2.5,0.9-4.2,1.1-5.7c0.3-1.5,0.4-2.7,0.6-4.1l0.1-0.1l0.2-0.1
		c1.9-0.3,3.1-0.4,4.4-0.6c1.3-0.2,2.5-0.4,4.5-0.8l0.1,0.2l0.1,0.2C100.9,62.9,100.5,64.4,100.2,66z M100.6,59.4
		c-2.1,1.5-5.3,1.8-7.1,0.8c-1.8-1.1-1.6-3.1,0.6-4.6c2.1-1.5,5.3-1.8,7.1-0.7C103,55.9,102.7,57.9,100.6,59.4z M103.4,68.3
		c0.7-3,1.8-6.1,4.3-8.3c3.4-3.2,7.8-3.3,9.6-3.3c3.1,0,6,0.7,7.7,2.8c1.1,1.4,2,3.7,0.9,8.6c-0.3,1.5-1.3,5.1-3.5,7.5
		c-2.8,3-6.6,4-10.2,4c-1.4,0-3.7-0.2-5.2-0.8C102,76.7,102.8,71.3,103.4,68.3z M120.9,126.8h-9.4c-0.8,0-1.3-0.1-2.1-0.3
		c-0.8-0.2-1.1-0.6-1.5-1.1c-0.3-0.5-0.9-1-0.5-2.2l2.7-8.9h-4.6l1.5-5.1h4.6l1.2-4.1h-4.6l1.5-4.8H130l-1.5,4.8h-8.1l-1.3,4.1h8.3
		l-1.5,5h-8.3l-2,6.7c-0.2,0.7,2,0.8,2.8,0.8l4.2-0.6L120.9,126.8z M137.7,126.8h-5.5c-1.7,0-3,0-3.9-0.1c-0.8-0.1-1.7,0-2.3-0.4
		c-0.5-0.4-1.3-1-1.3-1.6c0.1-0.6,0.3-1.5,0.6-2.8l9.9-33h7.1l-1,3.6c0,0,2.2-1.8,3.8-2.4c1.6-0.6,5.1-1.1,5.1-1.1l11.5-0.1l-3.9,13
		c-0.7,2.2-1.4,3.7-1.9,4.3c-0.4,0.7-0.9,1.2-1.9,1.8c-1,0.5-1.9,0.8-2.7,0.9c-0.8,0.1-1.9,0.1-3.5,0.1h-11.1l-3.1,10.3
		c-0.3,1-0.4,1.5-0.2,1.8c0.2,0.2,0.5,0.5,1.1,0.5l4.9-0.5L137.7,126.8z M155.4,113.1c-0.3,1-0.5,1.7-1.3,2.3
		c-0.8,0.7-1.7,1.4-3.8,1.4l-3.9,0.2l0,3.5c0,1,0.2,0.9,0.4,1.1c0.2,0.2,0.3,0.2,0.5,0.3l1.3-0.1l3.8-0.2l-1.6,5.2h-4.3
		c-3,0-5.3-0.1-6-0.6c-0.7-0.5-0.8-1-0.8-2l0.3-13.8h6.9l-0.1,2.8h1.7c0.6,0,1-0.1,1.2-0.2c0.2-0.2,0.4-0.4,0.5-0.7l0.7-2.2h5.4
		L155.4,113.1z M179.5,126.8h-7.4l0.5-1.6h-15l1.5-4.9h1.5l7.9-26.1l1.6-5.3h7.5l-0.8,2.7c0,0,2-1.4,3.9-1.9c1.6-0.4,9.4-0.6,12-0.7
		v0h8.1l0.1,3c-0.1,0.5,0.4,0.7,1.3,0.7h1.6l-1.5,5H198c-3.8,0.3-5.2-1.3-5.1-3.2l-0.1-2.9l-0.8,2.7h-2.6l-7.8,25.7h2.1l-1.6,5.3
		H180L179.5,126.8z M212.9,104h-8.1l-1.3,4h8.1l-1.3,4.4h-8.8l-1.6,1.9h3.6l0.9,5.6c0.1,0.6,0.1,0.9,0.3,1.2
		c0.2,0.2,1.2,0.3,1.9,0.3h1.1l-1.6,5.4h-2.7c-0.4,0-1.1,0-1.9-0.1c-0.8-0.1-1.4-0.6-1.9-0.8c-0.5-0.2-1.3-0.8-1.4-1.9l-0.9-5.5
		l-4,5.5c-1.3,1.7-3,3-5.9,3h-5.6l1.5-4.8h2.1c0.6,0,1.2-0.2,1.6-0.4c0.4-0.2,0.8-0.4,1.2-1l5.8-8.2h-7.7l1.3-4.4h8.8l1.2-4h-8.7
		l1.5-5h24.1L212.9,104z M218,88.6l-0.3,0.4h0l-3.1,5.3c-1,1.8-2.8,3.2-5.7,3.2l-5-0.1l1.4-4.8h1c0.5,0,0.9,0,1.1-0.2
		c0.3-0.1,0.4-0.3,0.6-0.6l1.8-2.8l0,0c2.5-3.7,3.1-5.4,5.7-9.6c-0.5-4.8-0.7-6.3-1.1-9.5c-0.2-1.9-0.5-3.8-0.7-5.7
		c-0.5-3.9-0.4-3.3-0.8-5.8l0-0.1c0-0.2,0-0.3,0.1-0.4l0.3-0.3c3.8-0.5,3.9-0.6,8.1-1.4l0.3,0.4l0.6,10.7c0,0.2,0,0.4,0,0.6
		c2.2-4.9,2.1-3.6,4.8-9.8l0,0.1c0-0.1,0-0.1,0-0.2l0.3-0.3c3.6-0.5,4.4-0.6,8.3-1.4l0.3,0.4C236,56.8,220.1,84.1,218,88.6z"/>
	<path class="st0" d="M171,110.8c0,0,2.3-1.2,3.5-1.5c1.2-0.3,3.1-0.5,3.1-0.5l1.5-4.8h-6L171,110.8z"/>
	<path class="st0" d="M176.1,94.1l-2,6.6c0,0,2.2-1,3.5-1.3c1.2-0.3,3.1-0.4,3.1-0.4l1.4-4.8H176.1z"/>
</g>
</svg>
