<svg width="122" height="40" viewBox="0 0 122 40" fill="none" xmlns="http://www.w3.org/2000/svg">
<path fill-rule="evenodd" clip-rule="evenodd" d="M43.0938 39.3349L49.303 0.69163H59.2381L53.028 39.3349H43.0938ZM25.2637 27.2701L34.7354 0.69163H45.4277L29.6214 39.3349H19.2707L10.6972 5.98906C4.94213 2.51796 0 1.49774 0 1.49774L0.186819 0.842285H16.136C20.526 0.842285 20.9372 4.3299 20.9372 4.3299L24.3431 21.7409C24.3431 21.7409 24.2415 21.428 24.0156 20.881L24.1441 21.5487L24.1433 21.5469L25.2637 27.2701ZM87.4337 9.98452C83.1824 7.61219 73.5072 7.0508 73.5072 11.4198C73.5072 13.1554 75.6963 14.3491 78.3348 15.7878C82.3364 17.9699 87.3718 20.7156 87.3718 26.7704C87.3718 36.4438 77.1428 40 70.3644 40C63.5852 40 59.1494 37.8166 59.1494 37.8166L60.6276 29.1416C64.6947 32.4484 77.0189 33.3852 77.0189 28.1432C77.0189 25.9408 74.5933 24.6418 71.7803 23.1353C67.8981 21.0563 63.278 18.5821 63.278 12.7926C63.278 2.18341 74.9854 0 79.9157 0C84.4761 0 88.8512 1.68499 88.8512 1.68499L87.4337 9.98452ZM106.059 0.69163H114.046L122 39.3349H112.878L111.713 33.5953H99.0834L97.012 39.3349H86.6573L101.473 3.57149C101.473 3.57149 102.371 0.69163 106.059 0.69163ZM107.167 11.2041L101.946 25.6653H110.103L107.167 11.2041Z" fill="#A78667"/>
</svg>
